<?xml version="1.0" standalone="no"?>
<!DOCTYPE svg PUBLIC "-//W3C//DTD SVG 20010904//EN"
 "http://www.w3.org/TR/2001/REC-SVG-20010904/DTD/svg10.dtd">
<svg version="1.0" xmlns="http://www.w3.org/2000/svg"
 width="1300.000000pt" height="841.000000pt" viewBox="0 0 1300.000000 841.000000"
 preserveAspectRatio="xMidYMid meet">
<metadata>
Created by potrace 1.16, written by Peter Selinger 2001-2019
</metadata>
<g transform="translate(0.000000,841.000000) scale(0.100000,-0.100000)"
fill="#000000" stroke="none">
<path d="M12959 7056 c-2 -2 -37 -7 -78 -10 -41 -3 -77 -9 -80 -14 -3 -6 -40
-12 -81 -15 -150 -11 -255 -26 -258 -36 -2 -6 -17 -11 -33 -11 -16 0 -29 -5
-29 -11 0 -8 -14 -10 -43 -6 -47 7 -120 -6 -125 -22 -2 -6 -19 -11 -38 -11
-19 0 -34 -4 -34 -10 0 -5 -13 -10 -30 -10 -16 0 -30 5 -30 10 0 6 -13 10 -30
10 -19 0 -30 -5 -30 -14 0 -22 18 -29 23 -9 4 17 5 17 6 0 1 -17 8 -18 79 -12
91 8 108 10 187 25 33 6 92 14 130 17 39 3 73 10 77 16 4 6 25 10 47 8 22 -1
48 2 58 8 11 5 46 12 78 16 33 4 68 9 78 12 26 7 61 12 135 19 57 6 62 9 62
30 0 17 -6 24 -18 24 -10 0 -21 -2 -23 -4z"/>
<path d="M8214 7021 c-11 -10 -31 -18 -44 -17 -16 1 -24 -4 -22 -12 2 -10 -7
-11 -33 -6 -19 3 -35 2 -36 -2 0 -5 -2 -22 -4 -38 -2 -16 0 -37 5 -47 12 -22
3 -49 -15 -43 -8 3 -16 -4 -20 -16 -5 -17 -12 -20 -31 -16 -29 8 -30 -3 -4
-37 22 -28 25 -44 11 -66 -8 -13 -12 -13 -27 0 -13 10 -12 5 4 -18 13 -18 27
-35 32 -38 6 -4 10 -17 10 -31 0 -13 5 -24 10 -24 6 0 10 11 10 25 0 14 5 25
10 25 15 0 8 32 -12 54 -19 21 -24 46 -9 46 5 0 11 -3 13 -7 6 -14 69 -63 80
-63 6 0 4 8 -5 18 -21 23 -21 32 -1 32 15 0 15 2 0 25 -13 19 -13 25 -3 25 7
0 19 -6 27 -12 8 -8 6 -1 -4 15 -18 30 -14 49 6 29 7 -7 20 -12 31 -12 10 0
15 -4 12 -10 -3 -5 -1 -10 4 -10 16 0 13 36 -4 50 -19 16 -21 57 -2 43 18 -14
59 -14 51 0 -3 7 4 1 15 -12 28 -31 35 -23 14 14 -8 17 -23 58 -32 93 -17 61
-17 62 -37 43z"/>
<path d="M12900 6880 c-14 -4 -45 -8 -70 -9 -26 -1 -50 -5 -55 -10 -6 -5 -32
-11 -60 -13 -59 -6 -225 -33 -595 -97 -63 -11 -150 -25 -194 -31 -43 -5 -82
-12 -86 -15 -4 -3 -55 -11 -111 -20 -200 -28 -304 -44 -344 -54 -22 -6 -82
-14 -132 -17 -51 -4 -93 -10 -93 -14 0 -4 -54 -13 -120 -20 -66 -7 -120 -16
-120 -20 0 -4 -26 -11 -57 -15 -32 -4 -87 -11 -123 -15 -36 -5 -87 -13 -115
-18 -109 -21 -601 -102 -645 -107 -60 -6 -232 -35 -305 -50 -38 -8 -104 -19
-145 -25 -41 -5 -122 -17 -180 -26 -58 -9 -111 -17 -117 -17 -12 0 -18 -21
-13 -42 2 -5 4 -39 6 -75 5 -89 21 -302 30 -375 9 -83 8 -91 -16 -125 l-21
-30 21 -30 c12 -17 26 -28 31 -25 12 8 11 -12 -1 -36 -8 -15 -7 -19 5 -19 9 0
15 9 16 23 0 12 3 16 6 10 6 -15 63 -18 63 -3 0 6 18 10 40 10 33 0 40 3 40
20 0 17 7 20 40 20 22 0 40 5 40 10 0 6 18 10 40 10 22 0 40 5 40 10 0 15 97
13 103 -2 4 -10 8 -9 17 2 9 11 13 12 17 3 2 -7 22 -13 43 -13 21 0 41 6 44
13 5 10 7 10 12 0 3 -7 23 -13 45 -13 32 0 39 3 39 20 0 17 7 20 40 20 22 0
40 -4 40 -10 0 -5 9 -10 19 -10 11 0 22 -6 24 -12 4 -10 8 -9 16 2 10 13 12
13 22 0 8 -11 12 -12 16 -2 2 6 13 12 24 12 10 0 19 5 19 10 0 6 9 10 19 10
11 0 22 6 24 13 4 9 8 9 15 -2 6 -8 20 -12 36 -9 14 3 23 1 20 -3 -12 -20 -6
-136 9 -165 33 -64 158 -134 402 -225 54 -20 101 -41 102 -46 2 -5 -11 -17
-29 -28 -18 -10 -36 -22 -39 -27 -3 -5 -32 -10 -65 -12 -116 -7 -111 -6 -89
-16 l20 -9 -20 -2 c-11 -1 -36 -3 -55 -5 -69 -6 -70 -6 -66 -30 4 -18 1 -22
-16 -19 -14 3 -22 -2 -25 -15 -3 -11 -9 -20 -14 -20 -5 0 -9 -9 -9 -20 0 -11
-7 -20 -15 -20 -8 0 -15 -4 -15 -10 0 -5 11 -10 25 -10 18 0 25 -5 25 -20 0
-13 7 -20 20 -20 16 0 20 -7 20 -30 0 -16 -4 -30 -10 -30 -5 0 -10 -4 -10 -10
0 -5 9 -10 20 -10 16 0 20 -7 20 -30 0 -23 -4 -30 -20 -30 -18 0 -20 -7 -20
-60 0 -53 2 -60 20 -60 18 0 20 -7 20 -60 l0 -60 48 0 c36 0 51 -5 62 -20 10
-14 26 -20 51 -20 21 0 40 -6 42 -12 4 -10 8 -9 16 2 9 13 12 12 17 -7 4 -14
14 -23 25 -23 11 0 19 -4 19 -10 0 -6 27 -10 60 -10 33 0 60 -4 60 -10 0 -5
10 -10 23 -10 12 0 40 -7 62 -15 22 -8 57 -14 78 -15 26 0 37 -4 37 -15 0 -13
32 -15 230 -15 147 0 230 -4 230 -10 0 -5 9 -10 20 -10 11 0 20 -5 20 -10 0
-7 6 -7 19 0 11 5 47 10 80 10 34 0 61 4 61 10 0 6 30 10 69 10 39 0 73 5 76
10 3 6 26 10 51 10 24 0 44 5 44 10 0 6 14 10 30 10 17 0 30 5 30 10 0 14 38
12 43 -2 3 -9 11 -6 24 10 14 15 32 22 57 22 33 0 36 2 36 30 0 28 2 30 40 30
33 0 40 3 40 20 0 17 7 20 40 20 33 0 40 3 40 20 0 18 7 20 80 20 47 0 80 4
80 10 0 6 9 10 20 10 11 0 20 5 20 10 0 6 9 10 20 10 11 0 20 5 20 10 0 6 9
10 19 10 27 0 33 24 17 70 -7 22 -10 37 -5 34 15 -9 10 16 -5 32 -8 8 -22 14
-30 14 -9 0 -16 5 -16 10 0 6 -8 10 -18 10 -9 0 -29 11 -44 25 -15 14 -34 25
-43 25 -8 0 -15 6 -15 14 0 8 -9 18 -20 21 -11 3 -20 10 -20 15 0 12 19 16
130 29 106 12 187 37 220 68 17 15 30 43 39 80 16 74 0 116 -61 166 -40 32
-225 127 -248 127 -5 0 -29 9 -52 19 -61 28 -321 106 -438 132 -25 6 -54 14
-65 19 -23 10 -84 23 -215 45 -52 9 -113 21 -135 27 -22 5 -69 11 -105 13 -60
2 -90 10 -220 52 -25 8 -72 17 -105 20 -33 3 -62 9 -65 13 -3 4 -45 10 -95 14
-49 3 -126 9 -170 13 l-80 7 90 9 c50 4 144 9 210 11 193 5 185 4 185 26 0 18
7 20 80 20 47 0 80 4 80 10 0 6 18 10 40 10 22 0 40 5 40 10 0 6 46 10 118 10
106 0 119 2 132 20 13 18 26 20 162 20 92 0 148 4 148 10 0 6 30 10 69 10 46
0 71 4 74 13 4 9 8 8 17 -3 9 -11 13 -12 17 -2 3 8 27 12 70 12 68 0 98 15 87
44 -4 12 0 16 15 16 12 0 21 -4 21 -10 0 -5 15 -10 34 -10 19 0 37 -6 39 -12
4 -10 8 -9 16 2 10 13 12 13 20 0 8 -12 13 -11 29 8 11 12 31 22 46 22 19 0
26 5 26 20 0 14 7 20 23 21 12 1 36 2 52 3 17 2 92 6 168 11 124 7 137 10 137
26 0 12 7 19 20 19 20 0 20 7 20 380 l0 380 -37 -1 c-21 -1 -49 -5 -63 -9z"/>
<path d="M10180 6723 c-8 -3 -17 -9 -20 -12 -6 -7 -106 -41 -190 -64 -194 -54
-437 -58 -567 -10 -23 8 -47 13 -55 10 -7 -2 1 -8 17 -12 17 -4 44 -15 60 -23
38 -19 179 -41 266 -42 130 0 342 51 459 111 78 40 90 49 65 48 -11 0 -27 -3
-35 -6z"/>
<path d="M8512 6058 c1 -62 5 -118 10 -124 5 -7 10 -45 11 -85 1 -41 6 -80 10
-87 5 -7 8 -32 7 -55 -1 -23 -1 -60 -1 -82 l2 -40 23 29 c24 29 24 30 6 55
-16 22 -20 53 -25 216 -6 209 -14 276 -32 282 -10 4 -12 -23 -11 -109z"/>
<path d="M7785 6053 c-60 -13 -157 -30 -215 -38 -58 -8 -134 -20 -170 -25 -36
-6 -94 -15 -130 -21 -143 -22 -197 -30 -245 -39 -71 -13 -299 -49 -444 -71
-68 -10 -144 -23 -170 -28 -25 -6 -107 -20 -181 -32 -74 -11 -178 -27 -230
-35 -52 -8 -122 -19 -155 -24 -82 -12 -238 -38 -305 -51 -30 -5 -86 -14 -125
-19 -38 -5 -122 -18 -185 -29 -63 -11 -149 -25 -190 -31 -41 -5 -111 -16 -155
-24 -44 -8 -114 -20 -155 -26 -41 -5 -131 -19 -200 -30 -69 -11 -156 -24 -195
-30 -38 -6 -92 -15 -120 -20 -27 -5 -79 -14 -115 -19 -36 -6 -108 -17 -160
-26 -122 -19 -276 -42 -365 -56 -67 -10 -106 -16 -225 -38 -30 -5 -104 -17
-165 -26 -60 -9 -159 -24 -220 -35 -60 -10 -162 -26 -225 -35 -63 -9 -135 -20
-160 -25 -25 -5 -97 -16 -160 -25 -63 -10 -147 -23 -187 -31 -77 -15 -113 -18
-113 -8 0 3 14 22 30 43 40 50 47 95 24 170 -36 120 -93 146 -307 136 -191 -9
-335 -39 -512 -106 -28 -10 -56 -19 -63 -19 -6 0 -12 -8 -12 -18 0 -12 -15
-23 -45 -34 -32 -12 -45 -14 -45 -5 0 6 -7 1 -16 -11 -8 -12 -24 -22 -35 -22
-10 0 -19 -4 -19 -10 0 -5 -7 -10 -15 -10 -8 0 -23 -4 -33 -10 -9 -5 -33 -16
-52 -25 -20 -8 -67 -44 -105 -79 l-69 -64 0 -76 c0 -42 -3 -76 -7 -76 -3 0
-64 -9 -135 -21 -71 -11 -158 -24 -194 -29 -54 -8 -120 -19 -275 -44 -11 -2
-42 -6 -70 -10 -27 -4 -76 -12 -107 -18 l-58 -11 0 -658 c0 -646 0 -659 20
-679 11 -11 20 -15 20 -10 0 20 37 50 71 60 48 14 349 13 403 -2 44 -12 66
-36 66 -76 1 -14 2 -14 12 3 21 40 57 65 90 65 41 0 220 -18 311 -32 64 -9 68
-12 82 -45 8 -20 15 -61 16 -92 1 -49 2 -52 9 -23 9 39 20 53 20 26 0 -17 3
-16 20 6 11 14 18 30 15 37 -2 6 3 14 11 17 8 3 14 12 14 20 0 23 32 28 102
16 34 -5 93 -10 131 -10 60 0 67 2 67 20 0 17 7 20 40 20 33 0 40 3 40 20 0
17 7 20 40 20 22 0 40 5 40 10 0 6 9 10 20 10 13 0 20 7 20 20 0 17 7 20 40
20 l40 0 0 60 c0 33 4 60 10 60 6 0 10 18 10 40 0 22 -5 40 -10 40 -7 0 -10
22 -8 58 l3 57 38 3 c29 3 37 7 37 23 0 16 -7 19 -40 19 -22 0 -40 5 -40 10 0
6 -9 10 -20 10 -16 0 -20 7 -20 30 0 23 4 30 20 30 11 0 20 5 20 10 0 6 18 10
40 10 33 0 40 3 40 20 0 19 7 20 200 20 l200 0 0 30 c0 23 4 30 20 30 13 0 20
7 20 20 0 17 7 20 40 20 33 0 40 -3 40 -20 0 -11 5 -20 10 -20 6 0 10 9 10 20
0 13 7 20 20 20 13 0 20 7 20 20 0 18 7 20 70 20 63 0 70 -2 70 -20 0 -18 7
-20 60 -20 53 0 60 2 60 20 0 13 7 20 20 20 11 0 20 -4 20 -10 0 -15 49 -12
66 4 8 8 14 22 14 30 0 14 18 16 120 16 113 0 120 -1 120 -20 0 -16 7 -20 30
-20 23 0 30 4 30 20 0 11 5 20 10 20 6 0 10 9 10 20 0 18 7 20 70 20 57 0 70
3 70 16 0 20 24 44 44 44 9 0 16 5 16 10 0 6 27 10 60 10 53 0 60 2 60 20 0
13 7 20 20 20 17 0 20 -7 20 -40 0 -27 4 -40 13 -40 22 0 14 -44 -8 -51 -18
-6 -19 -7 -2 -14 12 -5 23 0 38 19 11 14 29 26 39 26 25 0 34 16 14 24 -21 8
-26 8 -20 -3 3 -5 -3 -11 -14 -14 -17 -4 -18 -2 -9 15 7 13 18 18 29 15 11 -3
21 1 24 9 3 9 -1 14 -12 14 -15 1 -15 2 -1 13 19 14 31 55 18 62 -4 3 -14 -3
-21 -15 -7 -11 -21 -20 -30 -20 -14 0 -18 9 -18 41 l0 40 37 -3 c34 -3 38 -6
46 -40 5 -21 13 -38 17 -38 11 0 25 40 22 60 -2 11 -1 12 6 2 6 -9 23 6 58 50
28 35 58 75 67 89 10 14 28 32 42 39 14 7 27 23 31 34 14 46 243 246 281 246
7 0 13 3 13 8 0 4 26 17 58 29 151 58 228 63 364 27 57 -15 111 -27 120 -28 9
0 16 -4 15 -8 -1 -5 21 -21 48 -36 28 -15 55 -32 60 -38 33 -34 135 -114 147
-114 8 0 19 5 26 12 9 9 12 8 12 -5 0 -9 5 -17 11 -17 12 0 1 42 -14 51 -6 4
2 19 18 35 18 18 30 24 33 16 2 -7 12 -12 23 -12 12 0 19 -7 19 -20 0 -21 24
-28 35 -10 3 6 1 10 -4 10 -6 0 -11 5 -11 10 0 6 9 10 20 10 13 0 20 7 20 20
0 11 5 20 10 20 6 0 10 -9 10 -20 0 -11 5 -20 10 -20 6 0 10 9 10 20 0 11 5
20 10 20 6 0 10 -9 10 -20 0 -19 7 -20 120 -20 113 0 120 1 120 20 0 18 -7 20
-80 20 -47 0 -80 4 -80 10 0 6 33 10 80 10 47 0 80 4 80 10 0 6 33 10 80 10
47 0 80 4 80 10 0 6 18 10 40 10 33 0 40 3 40 20 0 19 7 20 90 20 53 0 90 4
90 10 0 6 43 10 110 10 67 0 110 4 110 10 0 6 18 10 40 10 22 0 40 5 40 10 0
6 14 10 30 10 17 0 30 5 30 10 0 6 50 10 130 10 123 0 130 1 130 20 0 18 7 20
80 20 l80 0 0 30 0 30 120 0 c66 0 120 4 120 9 0 5 72 12 160 16 126 6 160 10
160 21 0 10 16 14 60 14 33 0 60 -4 60 -10 0 -6 27 -10 60 -10 l60 0 0 30 c0
28 2 30 40 30 22 0 40 5 40 10 0 6 -9 10 -20 10 -13 0 -20 7 -20 20 0 19 7 20
100 20 60 0 100 4 100 10 0 6 18 10 40 10 22 0 40 5 40 10 0 6 20 10 44 10 39
0 44 2 39 20 -4 15 0 20 16 20 14 0 21 -6 21 -20 0 -11 5 -20 10 -20 6 0 10 9
10 20 0 14 7 20 21 20 24 0 40 -14 56 -52 7 -16 17 -28 23 -28 7 0 9 -8 5 -21
-5 -15 -4 -19 4 -15 17 11 13 30 -9 49 -13 10 -20 29 -20 50 0 18 -4 37 -10
43 -10 10 -2 54 10 54 5 0 6 9 3 20 -4 14 0 20 11 20 29 0 11 35 -30 58 -9 5
-18 34 -24 78 -5 38 -14 105 -20 149 -7 52 -7 88 -1 101 6 15 6 25 -2 33 -7 7
-14 38 -17 70 l-5 57 -110 -23z"/>
<path d="M9101 5465 c-22 -10 -31 -20 -28 -29 4 -10 1 -13 -7 -10 -8 3 -17 1
-21 -5 -3 -6 -2 -11 3 -11 14 0 22 -53 11 -66 -7 -9 7 -18 48 -32 32 -11 65
-23 73 -26 11 -4 16 -1 16 11 1 10 3 54 4 98 l3 80 -34 2 c-19 2 -49 -4 -68
-12z"/>
<path d="M4814 4555 c3 -8 0 -14 -6 -12 -18 4 -31 -62 -16 -81 11 -14 10 -15
-6 -9 -40 15 -55 -55 -20 -92 11 -13 17 -13 39 -1 29 16 95 100 95 122 0 8 5
19 12 26 16 16 -4 16 -21 0 -11 -11 -11 -9 -2 9 10 20 8 23 -24 29 -19 3 -35
10 -35 15 0 5 -5 9 -11 9 -6 0 -9 -7 -5 -15z"/>
<path d="M4976 4416 c-9 -19 -16 -38 -16 -43 0 -16 -82 -93 -94 -86 -6 3 -8 2
-3 -2 4 -5 0 -16 -9 -26 -18 -20 -11 -59 12 -59 8 0 14 -4 14 -9 0 -5 9 -7 20
-4 16 4 19 2 14 -12 -6 -15 -3 -17 25 -13 25 4 31 1 26 -10 -3 -8 0 -12 7 -9
7 2 12 9 11 15 -2 6 3 9 11 6 7 -3 31 13 52 34 33 34 41 38 52 26 11 -12 8
-16 -14 -25 -15 -5 -47 -28 -71 -49 -42 -40 -42 -50 0 -29 15 7 12 2 -8 -15
-16 -14 -25 -25 -19 -26 20 0 99 57 113 83 8 14 17 24 22 22 4 -3 5 5 1 17 -4
16 -2 19 9 14 8 -4 5 -1 -6 8 -11 8 -25 19 -30 24 -6 5 -16 7 -23 4 -8 -2 -12
9 -12 38 0 25 -4 39 -10 35 -9 -6 -11 -1 -14 32 -1 7 -10 23 -21 35 -11 13
-18 31 -17 41 5 27 -4 20 -22 -17z"/>
<path d="M8615 4323 c17 -5 15 -7 -10 -18 l-30 -12 55 -25 c30 -14 69 -28 86
-32 25 -6 31 -11 27 -27 -3 -10 -1 -19 3 -19 5 0 20 -3 34 -7 l25 -6 -25 22
-25 22 36 -6 c27 -4 38 -2 42 9 6 16 -31 55 -59 60 -10 2 -47 13 -81 25 -34
12 -70 20 -80 20 -15 -1 -15 -2 2 -6z"/>
<path d="M3674 4219 c3 -19 5 -38 5 -42 1 -5 7 -7 14 -4 21 7 86 -32 101 -61
8 -15 35 -49 60 -77 25 -27 46 -53 46 -57 0 -5 21 -8 46 -8 25 0 54 -5 66 -11
29 -16 35 -2 8 21 -13 11 -36 20 -53 20 -22 0 -27 3 -19 13 18 23 11 70 -17
98 -32 34 -129 91 -133 79 -2 -5 -23 5 -47 21 -24 17 -46 28 -49 25 -3 -3 -11
-1 -19 5 -11 9 -12 5 -9 -22z"/>
<path d="M5129 4124 c-18 -20 -63 -57 -99 -82 l-65 -47 38 -3 c20 -2 37 -7 37
-13 0 -5 11 -9 24 -9 13 0 26 -7 30 -15 3 -8 15 -15 27 -15 15 0 19 -4 15 -16
-11 -28 55 -8 89 27 l30 30 -27 -10 c-22 -8 -28 -8 -28 4 0 7 7 20 15 28 17
18 7 31 -12 15 -11 -9 -13 -4 -7 31 6 37 5 41 -11 34 -11 -4 -16 -2 -12 4 3 5
9 24 12 41 7 43 -12 42 -56 -4z"/>
<path d="M3619 4108 c-9 -29 -4 -40 25 -53 18 -9 52 -36 77 -61 27 -29 35 -42
22 -35 -33 17 -30 -5 4 -43 l28 -31 -35 31 c-81 71 -142 98 -86 37 14 -15 26
-31 26 -35 0 -7 -51 5 -70 17 -23 14 -7 -11 37 -59 68 -73 75 -77 104 -63 13
7 25 18 25 25 1 7 2 20 3 29 0 9 4 14 7 11 3 -4 17 0 31 7 14 7 31 11 38 8 28
-10 43 58 18 84 -6 7 -13 16 -15 20 -10 23 -109 93 -131 93 -14 0 -29 5 -32
10 -5 8 -73 15 -76 8z"/>
<path d="M3495 3916 c-17 -12 -11 -50 7 -44 5 2 25 -11 43 -28 18 -17 54 -44
79 -60 25 -16 44 -34 42 -41 -6 -15 24 -27 37 -14 29 29 -50 127 -140 173 -42
21 -55 24 -68 14z"/>
<path d="M5401 3891 c-1 -8 -8 -11 -21 -8 -11 3 -18 1 -14 -4 3 -5 0 -9 -5 -9
-6 0 -11 -6 -11 -13 0 -7 -20 -30 -45 -51 -25 -20 -43 -41 -40 -46 3 -5 1 -19
-5 -31 -12 -22 -4 -42 8 -22 10 16 54 31 70 25 10 -3 2 -17 -24 -43 -21 -22
-33 -39 -27 -39 7 0 16 6 20 13 4 8 22 20 38 28 29 14 30 14 31 -8 1 -13 -2
-23 -8 -23 -5 0 -6 6 -2 13 5 9 4 9 -6 0 -8 -7 -15 -22 -17 -33 -3 -20 -2 -20
19 -6 29 20 42 20 34 0 -11 -29 5 -35 38 -14 18 11 36 17 39 13 4 -3 7 3 7 14
0 11 9 28 20 38 19 17 27 45 14 45 -3 0 -20 -11 -36 -25 -40 -34 -48 -24 -14
15 32 39 36 66 6 50 -11 -6 -20 -15 -20 -19 0 -5 -9 -11 -19 -14 -19 -5 -19
-4 0 27 24 39 24 46 -2 46 -11 0 -18 -4 -15 -8 3 -5 -1 -9 -8 -9 -8 0 -4 14
12 39 14 21 29 38 34 38 4 0 8 5 8 11 0 7 -9 9 -24 5 -15 -4 -26 -1 -29 7 -4
9 -6 8 -6 -2z"/>
<path d="M3226 3712 c-13 -22 4 -67 37 -98 20 -19 38 -34 41 -34 2 0 32 -29
67 -65 34 -36 68 -65 76 -65 29 0 24 31 -13 78 -60 74 -59 73 -40 66 9 -3 16
-2 16 2 0 11 -92 94 -105 94 -5 0 -3 -4 5 -10 8 -5 12 -12 8 -15 -9 -10 -46
17 -51 37 -5 18 -32 25 -41 10z"/>
<path d="M6529 3400 c-57 -67 -170 -305 -200 -423 -6 -23 -15 -60 -20 -82 -55
-216 -48 -522 14 -670 16 -38 31 -80 34 -92 12 -52 128 -155 188 -168 26 -5
24 -3 -10 13 -48 23 -118 98 -150 162 -57 115 -85 255 -85 430 0 232 39 417
131 627 11 24 19 45 19 47 0 7 82 141 98 159 8 9 13 19 11 21 -3 3 -16 -8 -30
-24z"/>
<path d="M2775 3331 c13 -37 13 -40 -6 -38 -10 1 -19 6 -19 11 0 5 -3 6 -7 3
-3 -4 -12 -2 -20 4 -11 9 -12 5 -6 -21 5 -26 3 -31 -7 -25 -10 6 -12 -3 -7
-46 3 -30 9 -65 12 -79 5 -18 2 -16 -11 9 l-18 35 -7 -34 c-4 -19 -6 -37 -3
-39 2 -2 4 2 4 9 0 9 6 8 20 -5 11 -10 20 -14 20 -9 0 5 18 -11 40 -36 l39
-45 -3 51 c-3 29 -14 70 -25 93 -12 22 -18 41 -13 41 5 0 19 -22 32 -50 13
-27 34 -59 46 -71 21 -20 24 -20 30 -5 3 9 4 28 2 41 -6 31 10 32 41 3 l24
-21 -5 31 c-2 17 -1 33 4 34 11 4 -54 137 -67 138 -6 0 -9 -17 -7 -40 3 -29 0
-40 -9 -40 -13 0 -23 19 -60 108 -20 46 -31 40 -14 -7z"/>
<path d="M0 3185 c0 -138 1 -145 20 -145 11 0 20 -4 20 -10 0 -5 -9 -10 -20
-10 -11 0 -20 -6 -20 -13 0 -18 76 -91 83 -80 3 5 4 32 2 60 -4 42 -1 53 17
69 19 17 21 17 15 2 -3 -10 -2 -20 3 -23 6 -4 10 -2 10 3 0 5 10 9 22 8 17 -1
25 7 31 29 5 17 13 37 17 45 10 21 1 77 -15 90 -16 13 -25 2 -36 -44 -7 -30
-7 -30 -8 -4 -1 14 -7 28 -13 30 -9 3 -8 10 5 23 10 9 16 24 13 32 -3 8 -6 17
-6 19 0 2 -5 4 -11 4 -7 0 -9 -10 -5 -25 7 -26 -7 -34 -21 -12 -4 8 -16 16
-25 20 -10 3 -18 14 -18 23 0 10 -5 14 -15 10 -11 -4 -19 3 -25 19 -5 14 -12
25 -15 25 -3 0 -5 -65 -5 -145z"/>
<path d="M650 3286 c0 -3 5 -17 10 -31 7 -17 7 -32 0 -43 -6 -11 -9 -12 -10
-4 0 7 -4 11 -9 8 -5 -3 -11 1 -14 8 -4 11 -18 14 -51 10 -24 -2 -68 2 -98 10
-44 12 -55 12 -67 1 -10 -10 -18 -11 -31 -3 -10 7 -25 8 -36 3 -31 -14 -55
-13 -61 1 -9 25 -23 15 -23 -16 0 -32 -14 -40 -27 -15 -6 10 -9 -1 -11 -32 -1
-25 -4 -56 -7 -67 -6 -21 -6 -21 9 -2 15 19 16 18 16 -11 0 -18 -4 -35 -10
-38 -5 -3 -10 1 -10 9 0 9 -5 16 -10 16 -16 0 -7 -34 10 -41 21 -9 30 -1 30
26 0 13 3 30 6 39 5 13 9 12 25 -8 11 -13 16 -31 13 -39 -3 -8 5 -24 18 -36
15 -15 24 -18 27 -10 2 7 -4 18 -14 26 -21 14 -19 18 10 27 26 7 56 -10 37
-22 -11 -7 -11 -11 0 -19 31 -24 36 -23 34 7 0 16 3 31 9 32 5 2 10 -5 10 -14
0 -9 11 -27 24 -40 19 -17 23 -18 18 -5 -3 9 -3 27 2 39 7 21 8 20 27 -10 10
-18 22 -32 26 -32 7 0 12 23 9 43 -1 4 8 2 18 -5 15 -9 23 -9 35 1 13 11 16
11 16 0 1 -19 39 32 40 51 0 8 5 22 11 30 7 11 8 0 4 -37 -6 -45 -4 -54 10
-60 10 -3 26 -1 35 5 15 9 17 8 14 -11 -3 -16 0 -13 10 8 9 17 15 40 16 53 1
49 20 8 20 -44 0 -39 4 -54 14 -54 8 0 17 7 20 16 5 13 9 14 21 4 8 -7 24 -10
36 -7 12 3 30 0 40 -6 16 -10 21 -9 29 2 6 11 12 12 22 4 7 -6 30 -10 51 -9
34 2 40 6 57 41 l18 40 -5 -37 c-3 -23 -1 -38 5 -38 5 0 13 21 17 46 5 38 9
43 21 33 11 -9 14 -7 14 15 0 30 -40 76 -65 76 -9 0 -18 12 -21 30 -7 32 -24
41 -24 12 0 -10 -8 -18 -19 -19 -14 -1 -22 7 -26 29 l-7 30 -19 -31 c-10 -17
-21 -31 -24 -31 -3 0 -11 13 -16 30 -11 31 -29 32 -29 1 0 -10 -7 -24 -15 -31
-12 -10 -15 -7 -21 17 -14 64 -14 63 -35 50 -10 -6 -20 -21 -20 -32 -1 -13 -4
-10 -9 10 -7 29 -8 29 -24 -15 -3 -8 -5 -4 -5 10 2 47 -1 61 -11 55 -6 -3 -7
-17 -4 -31 9 -33 -11 -31 -38 6 -19 26 -38 39 -38 26z"/>
<path d="M1489 3235 c-4 -5 -12 -35 -18 -65 -18 -81 -24 -90 -30 -50 -8 49
-41 55 -41 8 0 -42 -14 -67 -24 -43 -3 9 -6 28 -6 41 0 33 -19 30 -26 -4 -8
-41 -34 -37 -34 4 0 38 -16 53 -25 24 -3 -11 -15 -20 -26 -20 -12 0 -19 -7
-19 -19 0 -11 -4 -23 -10 -26 -14 -8 -13 -112 1 -121 6 -3 15 0 20 7 6 10 11
11 17 3 15 -22 41 -23 48 -2 6 21 7 21 18 2 12 -20 46 -29 46 -12 0 6 7 5 16
-3 13 -10 17 -10 25 2 7 11 9 10 9 -6 1 -20 1 -20 15 -1 8 11 15 34 15 52 0
18 4 35 8 38 5 3 5 -17 2 -45 -6 -48 2 -65 15 -31 6 16 7 16 17 -2 14 -26 28
-3 28 48 0 33 -2 37 -15 26 -13 -11 -15 -6 -15 39 0 32 -4 50 -10 46 -5 -3
-10 -2 -10 4 0 5 5 11 11 13 6 2 9 24 7 53 -2 28 -6 46 -9 40z"/>
<path d="M1830 3194 c0 -8 -3 -13 -7 -11 -12 7 -3 -284 9 -306 9 -18 11 -18
26 -4 11 12 15 36 14 97 0 44 2 79 6 76 4 -2 8 10 8 27 1 18 4 53 6 79 4 39 2
47 -14 52 -16 4 -19 -1 -18 -22 1 -15 2 -34 1 -42 -1 -13 -2 -13 -11 0 -6 8
-7 27 -4 43 3 16 1 27 -5 27 -6 0 -11 -7 -11 -16z"/>
<path d="M2366 3125 c11 -150 74 -244 74 -112 l0 32 22 -42 c12 -24 25 -43 29
-43 10 0 15 49 9 90 -4 29 -9 35 -30 35 -14 1 -28 -4 -32 -9 -4 -6 -10 14 -14
44 -4 30 -9 49 -11 43 -6 -18 -24 -16 -39 5 -11 14 -12 8 -8 -43z"/>
<path d="M6980 3043 c-108 -74 -151 -293 -90 -455 25 -66 80 -125 127 -134 51
-10 62 3 18 21 -27 11 -41 23 -41 35 0 10 5 16 11 12 5 -3 4 2 -4 12 -8 9 -20
15 -27 12 -7 -3 -18 2 -24 10 -7 8 -9 14 -5 14 4 0 3 6 -2 13 -12 14 -24 57
-16 57 3 0 14 -10 24 -22 19 -21 20 -22 15 -3 -14 58 -19 118 -17 184 1 57 -2
76 -14 85 -17 12 -11 51 6 40 5 -3 7 -11 3 -17 -3 -7 4 -1 15 12 12 13 21 33
21 44 0 15 3 18 10 11 8 -8 5 -33 -9 -82 -11 -40 -16 -72 -10 -72 5 0 9 8 9
18 0 21 36 135 51 164 8 16 8 19 -1 13 -7 -4 -4 4 5 19 17 26 17 26 -7 26 -13
0 -35 -8 -48 -17z"/>
<path d="M7205 2939 c-8 -35 2 -139 16 -160 6 -10 9 -10 9 -1 0 28 17 9 28
-33 18 -66 39 -95 71 -95 l26 0 -30 20 c-16 11 -25 20 -19 20 5 0 15 -5 21
-11 13 -13 93 -22 93 -10 0 4 -11 22 -25 41 -14 19 -25 40 -25 47 0 7 -4 13
-10 13 -5 0 -7 -8 -3 -17 5 -15 4 -16 -8 -5 -10 9 -14 37 -13 95 1 60 -1 71
-6 42 -6 -32 -7 -34 -9 -12 -1 26 -4 28 -32 23 -40 -6 -47 -13 -52 -56 -3 -32
-4 -31 -6 10 -2 35 -4 41 -11 25 -7 -16 -9 -13 -9 18 -1 20 4 37 9 37 6 0 10
-7 10 -17 0 -9 2 -14 5 -11 8 7 -6 68 -15 68 -5 0 -11 -14 -15 -31z"/>
<path d="M6672 2865 c-38 -203 17 -469 122 -579 41 -43 120 -87 154 -85 14 0
14 2 2 6 -70 24 -117 62 -170 138 -76 111 -86 159 -84 423 1 89 -1 162 -5 162
-4 0 -12 -29 -19 -65z"/>
<path d="M9450 2914 c-29 -16 -54 -18 -45 -4 9 14 -17 12 -37 -4 -11 -8 -15
-20 -12 -33 4 -15 0 -25 -14 -32 -11 -6 -22 -17 -26 -26 -4 -11 2 -15 24 -15
20 0 30 5 30 15 0 8 7 15 15 15 8 0 15 -4 15 -10 0 -5 -4 -10 -9 -10 -5 0 -19
-13 -30 -29 l-20 -28 22 2 c36 4 37 4 37 20 0 8 6 15 13 15 21 1 107 69 107
86 0 13 -5 13 -32 -4 -18 -11 -44 -23 -58 -27 l-25 -7 22 21 c12 11 27 21 32
21 13 0 33 37 23 44 -4 2 -18 -2 -32 -10z"/>
<path d="M9525 2777 c-31 -12 -105 -67 -105 -78 0 -3 15 -3 33 -1 l32 5 -21
-24 c-30 -34 -35 -54 -19 -76 14 -17 14 -17 15 5 0 15 9 26 26 32 36 14 64 12
64 -3 0 -8 11 -24 25 -37 20 -19 27 -21 40 -10 23 19 18 43 -17 74 l-33 28 28
24 c34 29 27 45 -16 37 l-32 -6 19 21 c22 25 10 28 -39 9z"/>
<path d="M5532 2640 c-55 -268 -67 -384 -67 -625 1 -190 4 -234 23 -322 24
-112 75 -259 98 -284 8 -8 14 -20 14 -26 0 -5 10 -21 21 -34 12 -13 28 -34 37
-47 8 -12 17 -21 19 -18 3 3 -6 20 -20 38 -99 132 -163 370 -173 648 -6 152 7
396 26 495 5 28 19 96 30 153 12 57 19 109 17 115 -2 6 -13 -36 -25 -93z"/>
<path d="M12959 2086 c-2 -2 -35 -6 -74 -9 -89 -8 -604 -84 -750 -111 -398
-75 -955 -208 -955 -227 0 -5 6 -9 13 -9 8 0 74 -18 148 -41 198 -61 344 -81
572 -80 104 1 207 5 230 11 23 5 80 16 127 25 83 16 252 70 310 100 16 8 35
15 43 15 21 0 286 150 335 189 40 33 42 37 42 88 0 45 -3 53 -18 53 -10 0 -21
-2 -23 -4z"/>
<path d="M12891 1744 c-1 -17 6 -51 14 -74 8 -23 15 -44 15 -46 0 -1 -16 0
-35 3 -31 5 -35 3 -35 -17 0 -51 113 -202 139 -186 15 10 12 118 -5 136 -14
16 -57 107 -59 125 -1 10 -9 32 -25 70 -7 17 -9 15 -9 -11z"/>
<path d="M12590 1620 c-2 -25 -4 -65 -4 -90 -3 -108 -6 -131 -16 -125 -5 3
-10 22 -10 41 0 21 -4 33 -10 29 -31 -19 16 -161 61 -185 30 -16 38 -2 12 20
-13 10 -23 22 -23 26 0 4 8 0 18 -9 9 -8 31 -19 47 -23 17 -3 43 -18 58 -33
l29 -26 -22 38 c-12 20 -27 37 -33 37 -6 0 -8 2 -5 5 3 3 17 1 30 -4 18 -7 29
-6 37 2 6 6 32 14 59 17 41 4 47 8 46 28 0 14 3 19 9 13 5 -5 15 -7 22 -5 22
9 28 -15 11 -41 -21 -32 -21 -85 -1 -85 11 0 15 12 15 44 0 37 4 46 21 51 21
7 20 8 -7 35 -36 35 -74 85 -74 97 0 4 5 0 11 -11 9 -14 13 -16 20 -5 10 16
-8 40 -25 33 -7 -3 -25 15 -41 40 -29 46 -51 51 -58 13 l-4 -22 -2 21 c-1 24
-29 40 -43 26 -5 -5 -12 -28 -15 -50 -5 -34 -8 -39 -26 -34 -18 5 -20 2 -15
-41 5 -42 4 -45 -12 -37 -22 12 -40 77 -50 177 -6 64 -8 70 -10 33z"/>
<path d="M10955 1605 c-17 -7 -38 -22 -47 -32 -20 -22 -48 -96 -48 -128 0 -24
33 -59 50 -53 11 3 71 168 61 168 -2 0 -13 -8 -24 -17 -20 -18 -20 -18 -2 10
10 15 26 32 36 38 19 9 26 30 12 28 -5 0 -22 -7 -38 -14z"/>
<path d="M10295 1463 c-248 -95 -683 -293 -855 -390 -19 -11 -62 -35 -95 -53
-33 -19 -62 -37 -65 -41 -3 -3 -26 -16 -52 -28 -25 -11 -55 -32 -66 -46 -11
-14 -26 -25 -34 -25 -8 0 -23 -7 -34 -15 -37 -28 16 -18 94 18 12 6 39 12 60
13 78 5 127 14 130 24 2 5 12 10 23 10 10 0 19 5 19 10 0 6 9 10 20 10 11 0
20 5 20 10 0 6 14 10 30 10 17 0 30 5 30 10 0 6 30 10 70 10 61 0 70 2 70 18
0 14 8 18 36 19 20 1 40 6 44 12 3 7 14 9 23 5 12 -4 17 -1 17 10 0 11 9 16
26 16 15 0 35 10 47 23 13 15 21 18 24 10 6 -16 123 -18 123 -3 0 6 16 10 35
10 19 0 35 5 35 10 0 6 9 10 20 10 11 0 20 5 20 10 0 6 25 10 55 10 30 0 55 5
55 10 0 6 9 10 20 10 11 0 20 5 20 10 0 6 23 10 50 10 28 0 50 5 50 10 0 6 9
10 20 10 11 0 20 -4 20 -10 0 -14 57 -13 62 2 3 7 37 13 91 16 48 2 87 8 87
12 0 5 19 12 43 16 26 4 36 9 26 13 -18 7 -41 26 -72 59 -11 12 -27 20 -33 18
-13 -5 -146 72 -208 119 -37 28 -45 29 -101 8z"/>
<path d="M12284 1454 c4 -9 2 -13 -5 -8 -8 5 -9 -14 -4 -65 4 -45 3 -71 -3
-71 -14 0 -24 47 -16 73 6 20 5 21 -10 6 -16 -14 -22 -39 -25 -96 -1 -24 -31
-33 -31 -10 0 9 -2 9 -9 -1 -6 -10 -10 -8 -14 9 -4 13 -8 21 -11 18 -10 -9 25
-93 46 -111 23 -20 43 -19 43 2 0 17 21 24 30 11 12 -21 33 -12 29 12 -5 21
-4 21 8 3 24 -36 80 -92 69 -69 -14 29 -14 33 4 33 8 0 15 5 15 10 0 6 9 10
20 10 11 0 20 6 20 14 0 15 30 26 74 26 21 0 27 4 22 15 -3 8 1 18 8 22 20 11
22 34 7 62 -10 17 -15 20 -21 11 -10 -17 -34 25 -24 43 5 9 4 9 -5 1 -10 -9
-9 -19 2 -47 l15 -35 -39 0 c-21 -1 -39 4 -39 9 0 6 -4 7 -10 4 -5 -3 -10 -15
-10 -25 0 -16 -6 -19 -32 -17 -28 2 -35 8 -50 47 -9 25 -17 59 -17 76 -1 29
-16 54 -34 54 -5 0 -6 -7 -3 -16z"/>
<path d="M11435 1412 c-16 -10 -31 -18 -33 -19 -2 0 -4 -7 -6 -15 -1 -7 -5
-18 -8 -24 -4 -5 -9 -32 -13 -60 -4 -40 -2 -53 15 -73 12 -14 26 -21 36 -17
24 9 7 -34 -22 -57 -28 -22 -33 -50 -6 -40 9 4 19 9 22 12 3 4 22 15 43 26 21
11 35 25 32 32 -6 16 4 43 16 43 4 0 17 -10 29 -22 18 -19 20 -20 20 -4 0 16
5 15 36 -9 19 -15 38 -24 42 -21 3 4 -4 13 -16 22 -12 8 -22 24 -22 36 0 11
-5 38 -11 59 -10 32 -9 43 8 78 11 23 17 41 12 41 -14 0 -39 -43 -45 -77 -3
-18 -10 -33 -15 -33 -5 0 -9 -11 -9 -25 0 -31 -13 -32 -28 -2 -7 15 -11 17
-13 7 -1 -8 -5 3 -8 25 -4 23 -2 56 5 76 9 27 9 40 1 48 -14 14 -25 13 -62 -7z"/>
<path d="M11908 1373 c-23 -25 -37 -87 -32 -131 l5 -37 -16 35 c-12 26 -18 31
-25 21 -6 -11 -9 -8 -13 10 -3 15 -5 8 -6 -18 -2 -60 12 -91 41 -89 13 1 22 7
20 15 -2 9 4 8 20 -3 28 -20 44 -21 28 -1 -7 8 -9 15 -4 15 15 -1 39 -23 59
-53 10 -15 19 -26 21 -24 2 2 -7 34 -20 73 -14 38 -26 78 -29 89 -3 11 -5 2
-6 -19 -1 -46 -12 -42 -16 6 -2 18 -4 40 -4 48 -1 8 -8 2 -16 -15 l-13 -30 -1
33 c-1 18 6 46 14 62 18 34 15 38 -7 13z"/>
</g>
</svg>
