<?xml version="1.0" standalone="no"?>
<!DOCTYPE svg PUBLIC "-//W3C//DTD SVG 20010904//EN"
 "http://www.w3.org/TR/2001/REC-SVG-20010904/DTD/svg10.dtd">
<svg version="1.0" xmlns="http://www.w3.org/2000/svg"
 width="1300.000000pt" height="841.000000pt" viewBox="0 0 1300.000000 841.000000"
 preserveAspectRatio="xMidYMid meet">
<metadata>
Created by potrace 1.16, written by Peter Selinger 2001-2019
</metadata>
<g transform="translate(0.000000,841.000000) scale(0.100000,-0.100000)"
fill="#000000" stroke="none">
<path d="M1160 5095 c0 -6 -15 -19 -34 -29 -19 -10 -39 -30 -44 -45 -6 -15
-10 -157 -9 -351 2 -320 2 -325 23 -328 34 -5 55 30 55 91 0 32 6 63 14 74 12
14 14 73 15 293 0 161 -4 281 -10 290 -5 8 -10 10 -10 5z"/>
<path d="M4680 5088 c-1 -2 -7 -71 -14 -155 -10 -107 -18 -157 -29 -167 -8 -8
-17 -13 -20 -10 -11 11 -18 -61 -15 -140 l3 -80 60 3 c33 1 64 6 69 11 13 12
8 364 -6 455 -10 62 -17 81 -30 83 -10 2 -18 2 -18 0z"/>
<path d="M2923 5030 c-3 -17 -8 -28 -11 -26 -8 9 -31 -27 -32 -49 0 -11 9 -26
20 -32 24 -16 22 -73 -3 -101 -21 -23 -42 -171 -52 -364 l-7 -128 34 -1 c18 0
41 -2 51 -4 16 -3 17 20 17 366 0 203 -2 369 -5 369 -3 0 -8 -14 -12 -30z"/>
<path d="M2975 4720 c-4 -190 -5 -358 -4 -375 4 -28 11 -32 47 -26 7 1 6 481
-2 606 -2 39 -11 86 -19 105 -13 32 -15 5 -22 -310z"/>
<path d="M4797 4855 c-4 -55 -7 -148 -7 -207 l0 -107 43 -3 42 -3 0 -110 c1
-189 2 -199 21 -181 21 22 61 21 67 -1 3 -10 5 48 6 130 1 116 -2 147 -12 147
-8 0 -24 11 -37 25 -13 14 -35 25 -50 25 -47 0 -50 12 -51 185 -1 190 -13 244
-22 100z"/>
<path d="M5498 4642 c-10 -42 -20 -94 -23 -115 -3 -20 -18 -52 -33 -70 -32
-37 -52 -79 -52 -107 0 -31 18 -24 69 30 49 51 61 54 61 13 0 -12 4 -23 9 -23
25 0 18 313 -8 342 -4 4 -14 -27 -23 -70z"/>
<path d="M1776 4650 c-8 -41 -8 -223 0 -244 4 -11 19 -16 50 -16 l44 0 0 110
c0 93 -2 109 -15 104 -20 -8 -45 13 -60 50 l-12 28 -7 -32z"/>
<path d="M6081 4525 c0 -12 -5 -25 -11 -31 -5 -5 -12 -96 -16 -202 l-7 -192
-31 0 c-17 0 -38 -4 -46 -10 -12 -8 -12 -10 3 -16 20 -7 104 0 115 11 9 9 3
156 -14 318 -4 38 -2 66 6 81 6 13 10 32 7 42 -4 17 -5 17 -6 -1z"/>
<path d="M5000 4334 l0 -197 46 7 c26 3 55 6 65 6 17 0 19 9 19 109 0 118 -11
167 -35 157 -10 -4 -15 1 -15 14 0 11 -6 38 -12 60 -11 34 -17 40 -40 40 l-28
0 0 -196z"/>
<path d="M3081 4492 c-5 -10 -11 -54 -12 -98 l-2 -79 34 -11 c34 -11 34 -12
37 -78 2 -36 7 -66 12 -66 6 0 10 65 10 159 0 158 0 159 -25 175 -31 21 -42
20 -54 -2z"/>
<path d="M3335 4437 c-3 -34 -5 -136 -3 -227 l3 -165 60 -6 c33 -3 74 -9 91
-13 42 -9 44 -2 44 230 0 215 4 204 -76 204 -32 0 -44 4 -44 15 0 8 -8 15 -17
16 -10 0 -26 2 -35 4 -14 2 -18 -8 -23 -58z"/>
<path d="M3258 4483 c-47 -5 -45 3 -53 -235 -8 -207 -10 -199 63 -196 l32 1 0
219 c0 120 -1 217 -2 216 -2 -1 -20 -3 -40 -5z"/>
<path d="M3576 4442 c-3 -5 -3 -78 -1 -163 3 -85 5 -166 5 -181 0 -24 4 -28
29 -28 37 0 41 19 41 215 0 130 -2 154 -16 159 -22 9 -52 7 -58 -2z"/>
<path d="M1418 4423 c-7 -36 13 -138 30 -155 9 -9 31 -18 47 -20 l30 -3 3 88
c3 86 2 87 -23 97 -42 16 -83 12 -87 -7z"/>
<path d="M2210 4431 c0 -6 -18 -11 -39 -11 -39 0 -40 -1 -46 -43 -4 -24 -2
-61 4 -83 9 -34 14 -39 41 -40 16 -1 30 3 30 10 0 7 4 6 9 -2 5 -9 10 6 14 40
10 77 8 126 -3 133 -5 3 -10 1 -10 -4z"/>
<path d="M4488 4260 l-3 -175 -55 -6 -55 -6 53 -1 53 -2 -2 -52 -3 -53 39 -6
c22 -4 43 -5 48 -2 4 2 7 38 7 79 l0 74 -36 0 c-35 0 -36 1 -29 28 9 36 5 250
-5 276 -5 13 -10 -48 -12 -154z"/>
<path d="M6938 4247 c-3 -6 -5 -39 -6 -72 0 -36 2 -51 6 -37 7 21 8 21 29 7
12 -9 25 -31 29 -50 3 -20 12 -35 20 -35 16 0 43 58 51 110 4 19 13 41 22 48
13 11 4 13 -56 8 -58 -4 -73 -2 -73 9 0 19 -17 28 -22 12z"/>
<path d="M4638 4113 l-38 -4 0 -75 0 -74 48 0 c26 0 63 3 83 6 l36 6 -8 42
c-11 61 -18 74 -42 79 -18 4 -17 5 5 6 15 0 30 6 33 11 6 10 -39 11 -117 3z"/>
<path d="M5840 4082 c-9 -4 -16 -24 -19 -52 -1 -25 -8 -51 -15 -59 -9 -11 -12
-4 -17 35 -4 30 -6 -5 -7 -91 l-2 -140 75 3 c90 4 84 -7 88 180 l4 132 -46 -1
c-25 0 -53 -3 -61 -7z"/>
<path d="M5740 4030 c0 -16 -7 -20 -30 -20 -30 0 -30 0 -30 -57 -1 -32 -6 -96
-13 -143 l-13 -85 -49 -7 c-28 -3 -75 -7 -106 -7 -31 -1 -70 -4 -87 -7 -42 -8
-31 -31 12 -26 l33 4 8 -137 c6 -114 10 -135 22 -131 8 3 27 6 42 6 26 0 27 2
29 67 2 38 4 69 6 70 1 1 43 5 94 9 l92 7 0 238 c0 132 -2 239 -5 239 -3 0 -5
-9 -5 -20z"/>
<path d="M2610 3764 c0 -166 2 -185 16 -180 9 3 20 6 25 6 5 0 9 12 9 26 0 34
24 26 28 -10 2 -19 8 -26 20 -24 13 3 18 19 23 78 3 41 10 105 14 143 l8 67
-31 0 c-49 0 -62 9 -62 44 0 27 -4 32 -25 34 l-25 2 0 -186z"/>
<path d="M2470 3825 c0 -82 3 -105 14 -105 22 0 37 -26 44 -77 6 -40 11 -49
30 -51 l22 -3 0 168 0 168 -55 3 -55 3 0 -106z"/>
<path d="M625 3844 c14 -147 39 -167 48 -38 6 87 11 104 25 90 11 -12 4 -588
-8 -600 -7 -7 -10 -6 -10 3 0 11 -3 11 -15 1 -12 -10 -15 -41 -15 -156 l0
-144 38 0 c52 1 108 38 104 68 -2 13 8 48 22 78 24 51 26 64 26 209 l0 155
-29 0 c-63 0 -61 -6 -61 206 l0 194 -27 0 c-16 0 -45 3 -66 7 l-39 6 7 -79z"/>
<path d="M6271 3841 c-12 -17 -27 -44 -32 -61 -11 -30 -48 -44 -50 -17 0 6 -7
-1 -14 -18 -8 -16 -14 -60 -15 -98 0 -65 1 -67 23 -63 38 8 122 20 129 18 14
-3 19 43 16 153 -3 92 -6 110 -19 113 -10 2 -26 -10 -38 -27z"/>
<path d="M6356 3803 c-7 -48 -8 -102 0 -140 5 -27 12 -31 57 -41 29 -6 64 -14
80 -18 l27 -6 0 66 0 66 -45 0 c-43 0 -45 1 -45 29 0 31 -34 81 -54 81 -8 0
-16 -17 -20 -37z"/>
<path d="M6122 3787 c-1 -10 -9 -20 -17 -23 -8 -4 -25 -37 -36 -75 -12 -38
-25 -69 -30 -69 -5 0 -9 5 -9 10 0 6 -11 10 -24 10 -20 0 -24 -6 -29 -42 -7
-51 -4 -55 27 -39 13 7 45 11 71 9 66 -4 70 5 58 133 -5 57 -11 96 -11 86z"/>
<path d="M2390 3732 l0 -58 -41 4 c-31 3 -42 9 -49 28 -5 13 -14 24 -20 24 -5
0 -11 10 -11 23 -1 18 -3 16 -9 -8 -12 -47 -12 -457 0 -450 6 3 10 49 10 101
0 63 5 107 16 132 l15 37 14 -25 c14 -25 14 -24 15 18 0 39 2 42 28 42 17 0
29 5 29 13 0 7 12 38 26 69 31 65 34 93 11 102 -30 12 -34 6 -34 -52z"/>
<path d="M1680 3703 c0 -33 4 -63 9 -68 13 -14 18 -114 6 -119 -12 -4 -124 12
-137 20 -4 3 -8 -74 -8 -170 l0 -176 30 0 30 0 0 64 c0 64 -16 96 -40 81 -5
-3 -10 -1 -10 6 0 9 21 10 80 6 l80 -6 2 139 c5 288 6 275 -19 278 -22 3 -23
0 -23 -55z"/>
<path d="M1752 3522 l-1 -231 55 -7 c30 -3 57 -4 61 -1 3 3 8 53 10 111 5 87
3 110 -11 130 -19 29 -21 111 -5 169 6 22 9 41 7 43 -2 2 -29 6 -59 10 l-55 6
-2 -230z"/>
<path d="M5782 3659 l-2 -75 47 -3 c34 -1 53 -9 70 -26 16 -16 20 -24 11 -27
-17 -6 -28 -148 -12 -148 8 0 11 20 8 62 -3 44 0 66 11 78 16 18 19 34 17 99
-2 42 -3 43 -29 37 -16 -4 -47 -8 -70 -9 l-42 -3 -4 46 c-2 30 -4 20 -5 -31z"/>
<path d="M5105 3711 l-50 -6 3 -69 c4 -79 -4 -136 -19 -136 -5 0 -8 12 -7 27
2 19 -2 28 -14 31 -15 3 -18 -4 -18 -41 0 -24 -3 -79 -7 -121 l-6 -77 94 7
c52 3 119 10 149 14 l55 8 -70 1 -70 1 5 152 5 153 102 9 c69 6 104 13 107 23
4 10 -7 13 -45 13 -31 0 -48 4 -44 10 7 11 -83 11 -170 1z"/>
<path d="M1960 3621 c0 -99 -5 -113 -36 -105 l-24 6 0 -126 c0 -125 0 -126 23
-126 22 0 23 4 22 58 -2 45 -1 47 2 10 3 -37 8 -48 22 -48 9 0 21 4 27 9 5 5
25 11 44 13 l35 3 3 186 2 186 -31 7 c-17 3 -44 6 -60 6 l-29 0 0 -79z"/>
<path d="M2112 3504 l3 -189 35 -7 c83 -16 75 -36 78 180 l2 192 -29 0 c-15 0
-43 3 -60 6 l-31 7 2 -189z"/>
<path d="M1418 3590 c27 -12 29 -20 2 -13 -18 5 -18 3 4 -43 24 -51 43 -164
27 -164 -10 0 -24 -30 -17 -38 3 -2 23 -8 45 -12 l40 -7 6 51 c4 28 5 92 3
141 l-3 90 -65 2 c-48 2 -59 0 -42 -7z"/>
<path d="M3074 3569 c-3 -6 -8 -37 -11 -70 -6 -67 -20 -83 -63 -77 -24 4 -30
1 -30 -13 0 -14 14 -18 84 -24 46 -4 89 -4 95 -1 13 9 15 79 2 104 -5 9 -14
28 -20 42 -15 32 -47 54 -57 39z"/>
<path d="M4928 3559 c-15 -4 -67 -10 -115 -13 -49 -4 -116 -9 -150 -12 l-63
-6 0 -55 0 -56 53 6 c28 4 91 10 140 13 l87 7 0 -191 c0 -176 1 -191 17 -185
11 4 12 8 5 11 -14 4 -16 52 -2 52 6 0 10 28 10 65 0 45 -4 65 -12 65 -23 0
16 20 39 20 16 0 21 4 16 16 -3 9 -2 19 3 23 5 3 7 60 4 127 l-5 121 -27 -8z"/>
<path d="M860 3380 c0 -81 4 -130 11 -132 15 -5 26 -258 11 -258 -7 0 -12 -4
-12 -10 0 -5 9 -10 20 -10 16 0 20 7 21 33 1 58 7 272 8 280 1 4 8 7 16 7 9 0
12 6 8 16 -5 13 0 14 32 8 41 -7 55 3 55 42 0 25 -17 34 -65 34 -57 0 -65 7
-65 60 0 39 -4 49 -20 53 -19 5 -20 0 -20 -123z"/>
<path d="M7608 3340 c-4 -30 -8 -90 -8 -132 l0 -77 -32 -5 c-32 -5 -240 -26
-262 -26 -7 0 -12 -27 -13 -66 l-3 -66 33 6 c17 4 78 9 134 13 56 3 105 9 110
12 5 3 19 38 31 76 20 61 23 87 20 195 -3 105 -4 116 -10 70z"/>
<path d="M4477 3324 c-4 -4 -7 -71 -7 -149 l0 -141 -136 -11 c-75 -6 -138 -14
-142 -17 -9 -10 13 -61 26 -58 9 1 12 -33 12 -124 l0 -127 118 4 c64 2 118 1
120 -3 1 -5 2 -111 2 -237 l0 -228 -50 -7 -50 -7 -2 -127 c-4 -294 -10 -359
-18 -212 -4 63 -5 165 -2 226 l5 112 -69 -5 c-38 -2 -74 -6 -80 -8 -8 -2 -12
-47 -13 -138 l-2 -134 26 4 25 5 0 -137 0 -138 53 7 c28 3 99 11 157 17 58 6
106 12 106 12 1 1 5 185 9 409 7 403 7 407 -13 402 -17 -5 -20 1 -26 40 -10
63 1 111 27 124 16 8 18 11 6 11 -29 2 -107 41 -113 57 -5 13 -9 14 -20 5 -17
-15 -26 5 -26 59 0 36 33 110 52 118 4 2 8 9 8 15 0 6 12 20 26 32 21 16 27
33 34 90 5 38 5 74 1 80 -5 5 -11 39 -14 75 -6 71 -19 115 -30 104z"/>
<path d="M5269 3195 c-2 -55 -1 -101 4 -103 4 -2 7 -107 7 -234 l0 -229 -22 2
c-25 3 -181 -8 -240 -17 l-37 -6 3 -51 c2 -29 4 -118 5 -199 l1 -148 37 0 36
0 -7 -150 c-6 -146 -6 -150 14 -150 29 0 28 -46 -2 -53 -39 -11 -12 -18 40
-11 45 6 50 9 50 33 0 15 -9 33 -21 43 -18 14 -22 27 -22 72 0 36 -4 56 -12
56 -16 0 -27 170 -20 305 7 123 14 155 32 155 11 0 22 -88 27 -229 1 -25 4 4
7 65 6 95 10 113 29 134 12 13 22 30 22 37 0 7 6 13 13 13 8 0 22 18 32 40 10
22 24 45 32 51 7 6 13 20 13 30 0 13 9 19 33 21 l32 3 3 288 2 287 -30 0 c-24
0 -30 -4 -31 -22 -1 -14 -6 -5 -14 22 l-12 45 -4 -100z"/>
<path d="M3600 3221 c0 -31 -5 -53 -15 -61 -8 -7 -15 -28 -15 -46 0 -19 -5
-43 -12 -54 -16 -24 -11 -28 45 -39 33 -6 47 -5 48 3 0 6 1 61 2 123 2 104 1
112 -18 117 -34 9 -35 8 -35 -43z"/>
<path d="M6254 3138 c-4 -7 -7 -81 -5 -165 l2 -153 -44 0 -44 0 -6 -82 c-4
-46 -7 -102 -7 -125 l0 -41 78 5 c42 2 83 6 90 9 9 2 12 52 12 204 0 144 3
200 12 200 8 0 10 -52 5 -200 -4 -151 -3 -200 6 -201 7 0 32 -1 57 -2 41 -2
45 -4 48 -29 3 -22 9 -28 28 -28 l24 0 0 159 c0 87 3 186 7 221 l6 63 -60 -6
c-57 -6 -61 -5 -72 19 -6 14 -11 39 -11 57 0 18 -4 47 -10 65 -7 28 -7 33 5
28 8 -3 17 -1 20 4 4 6 -22 10 -64 10 -43 0 -73 -5 -77 -12z"/>
<path d="M2496 3081 c1 -33 8 -69 14 -81 7 -12 15 -52 18 -89 6 -58 10 -66 30
-69 21 -3 22 -1 22 87 0 74 -3 91 -15 91 -12 0 -15 13 -15 60 0 59 0 60 -28
60 -28 0 -28 -1 -26 -59z"/>
<path d="M6825 3087 c-4 -15 -5 -42 -3 -61 l4 -34 -81 -6 c-44 -4 -108 -9
-142 -12 l-63 -6 0 -218 0 -217 52 5 51 5 -6 -78 c-4 -43 -7 -128 -7 -190 0
-110 0 -112 -22 -112 -51 1 -68 -4 -68 -16 0 -11 11 -12 45 -7 25 4 48 8 50 8
3 1 20 2 38 2 l32 0 -3 151 c-2 97 1 156 7 162 6 6 11 39 11 73 l0 62 -39 7
-39 6 15 30 c17 35 53 58 53 34 0 -8 5 -15 11 -15 6 0 10 16 8 38 -4 79 0 93
29 103 23 8 31 21 47 72 11 34 22 76 25 92 4 25 10 30 38 33 31 3 32 5 32 48
0 42 -1 44 -29 44 -16 0 -31 6 -34 13 -2 6 -8 0 -12 -16z"/>
<path d="M7005 3100 l-80 -5 -3 -47 c-3 -40 -1 -46 15 -42 10 3 80 8 157 12
l138 7 -2 -265 c-1 -146 -2 -356 -1 -468 1 -198 2 -203 21 -200 19 3 20 12 25
212 2 114 6 211 10 214 3 3 5 -90 5 -207 l0 -213 43 6 c23 3 74 8 112 12 l71
6 -2 134 c-3 138 -7 159 -29 150 -14 -5 -28 18 -18 28 4 3 20 7 37 7 23 1 25
3 9 6 -20 4 -22 10 -25 106 -2 56 0 127 3 157 5 50 6 51 7 13 l2 -41 53 -7
c28 -4 62 -11 75 -16 l22 -9 0 129 c0 71 3 142 6 158 5 28 3 31 -25 35 l-31 5
0 -66 0 -66 -73 3 c-68 3 -74 2 -86 -21 -12 -23 -66 -61 -86 -62 -5 0 -11 -7
-13 -15 -2 -12 6 -15 40 -12 62 5 80 -13 89 -84 12 -97 10 -190 -3 -201 -7 -6
-46 -13 -86 -17 l-73 -6 1 47 c1 27 1 53 0 58 0 6 -1 62 -2 125 0 94 -2 106
-8 65 -5 -27 -9 -84 -11 -125 l-2 -75 -7 90 c-4 50 -13 117 -19 150 -6 33 -11
93 -11 133 0 57 3 72 15 72 16 0 18 12 9 47 -6 20 -12 22 -93 21 l-86 -1 -5
34 -5 34 -80 -5z"/>
<path d="M2892 3016 l-2 -29 -87 6 c-49 4 -114 10 -146 13 l-58 7 3 -89 3 -89
33 -3 c27 -3 32 0 32 17 0 19 6 21 65 21 l65 0 0 49 c0 28 5 53 10 56 6 4 10
-14 10 -48 l0 -54 46 -7 c74 -10 74 -10 74 33 0 31 -5 41 -19 46 -15 5 -21 17
-24 53 -2 26 -4 34 -5 18z"/>
<path d="M27 2983 c-1 -1 -1 -70 1 -153 l3 -152 62 7 c34 3 62 7 63 8 1 1 3
65 5 142 l4 140 -68 5 c-38 3 -69 4 -70 3z"/>
<path d="M5503 2977 l-123 -9 0 -145 0 -144 58 6 c112 12 102 -1 102 135 l0
120 28 5 c66 14 86 21 90 33 2 7 -4 11 -15 10 -10 0 -73 -5 -140 -11z"/>
<path d="M7693 2973 c-23 -4 -23 -6 -23 -164 0 -93 4 -158 9 -155 5 3 36 2 69
-2 l60 -8 5 40 c3 23 6 98 7 167 l1 126 -53 0 c-29 0 -63 -2 -75 -4z"/>
<path d="M5877 2913 c-4 -3 -7 -93 -7 -200 0 -122 -4 -193 -10 -193 -5 0 -10
-18 -10 -41 0 -32 -4 -42 -20 -46 -14 -4 -20 -14 -20 -32 0 -15 -5 -32 -12
-39 -9 -9 -6 -12 15 -12 14 0 37 -5 51 -11 13 -6 36 -9 50 -5 l26 6 0 217 c0
119 3 214 6 210 4 -3 7 -52 8 -109 l2 -103 49 3 c28 1 67 5 88 8 l37 6 0 119
0 119 -37 -1 c-21 0 -65 -4 -98 -8 -88 -11 -90 -10 -89 60 1 55 -9 73 -29 52z"/>
<path d="M948 2819 c6 -7 12 -24 12 -37 0 -13 4 -31 10 -41 10 -19 31 -125 35
-176 3 -47 5 -51 14 -35 6 7 13 47 17 87 7 84 24 98 24 21 1 -80 8 -141 19
-171 9 -24 8 -29 -13 -38 -38 -18 -26 -43 22 -47 39 -3 42 -5 48 -39 4 -21 2
-44 -4 -54 -9 -15 -8 -18 11 -22 12 -2 2 -5 -22 -6 -54 -1 -51 -6 12 -15 l47
-7 0 284 0 284 -37 6 c-21 4 -76 9 -123 13 -70 5 -83 4 -72 -7z"/>
<path d="M4871 2778 c-1 -39 -5 -58 -13 -59 -7 0 -69 -6 -137 -12 l-124 -12
-1 -27 c-1 -16 2 -28 7 -28 5 0 7 -7 3 -15 -3 -8 -1 -15 4 -15 6 0 10 -11 10
-25 0 -16 9 -29 27 -38 l27 -15 -42 -7 -42 -7 0 -407 0 -407 35 4 c38 5 59 22
26 22 -17 0 -21 6 -21 33 0 17 -7 41 -15 51 -12 15 -15 52 -15 156 0 147 4
160 51 160 59 0 59 -1 59 165 0 85 4 156 9 159 4 3 51 8 103 12 l95 7 6 -33
c4 -18 7 -67 7 -110 0 -57 4 -81 15 -90 13 -11 15 3 15 117 0 72 3 158 6 192
l7 61 -53 0 c-51 0 -52 0 -46 26 15 59 16 82 8 139 l-10 60 -1 -57z"/>
<path d="M1200 2526 c0 -198 3 -287 11 -292 6 -3 14 -2 18 4 4 6 39 5 106 -4
55 -7 107 -13 115 -14 20 0 0 17 -25 22 -15 2 -22 14 -27 48 l-6 45 1 -46 2
-47 -35 6 c-19 3 -44 9 -55 13 -17 7 -17 8 -2 8 13 1 17 10 17 38 0 40 -15 36
-23 -7 -3 -18 -5 -14 -6 14 l-1 38 40 -4 c52 -5 52 -5 48 187 l-3 150 -35 3
c-78 6 -80 7 -80 67 0 54 0 55 -30 55 l-30 0 0 -284z"/>
<path d="M1390 2512 l0 -170 30 -4 c17 -3 32 -2 35 0 3 3 5 41 5 84 l0 80 33
-4 32 -3 3 79 c2 44 -1 82 -5 86 -4 4 -36 11 -70 14 l-63 7 0 -169z"/>
<path d="M1545 2643 c2 -10 4 -49 4 -87 1 -66 2 -68 24 -63 12 3 43 11 70 17
47 12 48 14 51 65 1 21 -45 54 -75 55 -9 0 -19 7 -23 15 -8 22 -55 20 -51 -2z"/>
<path d="M365 2498 c5 -35 7 -92 5 -128 -3 -36 -5 -112 -5 -170 0 -101 1 -105
23 -108 l22 -3 0 174 0 175 45 -6 45 -5 0 60 0 60 -52 7 c-97 11 -92 14 -83
-56z"/>
<path d="M520 2486 c0 -37 4 -66 10 -66 6 0 10 10 10 21 0 22 2 22 123 16 67
-4 134 -10 150 -13 17 -4 27 -2 27 5 0 6 -19 11 -45 11 -43 0 -45 1 -45 30 0
33 -4 35 -110 45 -36 4 -77 9 -92 12 l-28 6 0 -67z"/>
<path d="M3118 2501 c12 -10 22 -25 22 -34 0 -26 11 -47 26 -47 11 0 14 -31
15 -162 l2 -163 9 100 c5 55 11 101 12 102 2 2 18 0 36 -3 21 -5 35 -14 38
-28 6 -20 6 -20 13 4 4 14 7 71 8 126 l1 102 -36 4 c-43 5 -52 -10 -36 -56 7
-18 12 -42 12 -54 0 -15 6 -22 20 -22 25 0 26 -22 2 -43 -36 -33 -50 -22 -55
46 -12 136 -18 146 -86 147 l-24 0 21 -19z"/>
<path d="M3358 2492 l-38 -3 0 -62 c0 -34 3 -126 7 -203 l6 -142 61 -10 c34
-5 64 -7 68 -3 11 10 12 190 0 203 -5 7 -11 34 -13 61 -3 38 -1 47 12 47 12 0
15 -7 11 -25 -3 -20 0 -25 17 -25 11 0 21 -4 21 -10 0 -5 5 -10 10 -10 6 0 10
14 10 30 0 17 4 30 9 30 11 0 21 -102 21 -221 0 -59 4 -99 10 -99 6 0 10 -30
10 -69 l0 -69 40 -4 40 -4 0 143 c0 97 -4 143 -11 143 -7 0 -10 29 -7 89 l3
90 -60 6 c-33 4 -88 11 -122 17 l-62 10 -3 46 -3 47 -37 -3z"/>
<path d="M3838 2373 l-48 -4 0 -60 c0 -54 2 -59 23 -60 15 0 17 -2 7 -6 -26
-10 -30 -25 -30 -110 0 -76 2 -83 20 -83 19 0 20 -7 20 -195 0 -107 4 -195 9
-195 15 0 21 41 21 146 l0 101 40 7 40 6 0 140 c0 92 -4 140 -11 140 -6 0 -9
31 -8 88 2 98 8 92 -83 85z"/>
<path d="M3960 2185 c0 -8 5 -15 11 -15 7 0 9 -13 4 -37 -3 -21 -9 -77 -13
-126 l-7 -87 40 1 c22 1 69 4 104 8 l65 6 -3 65 c-3 73 -7 83 -25 58 -8 -11
-20 -15 -34 -11 -20 5 -22 2 -22 -42 l0 -48 35 6 c21 3 33 2 30 -4 -4 -5 -21
-9 -39 -9 l-33 0 -6 75 c-4 41 -4 81 -1 90 4 8 3 31 0 50 -7 34 -8 35 -56 35
-38 0 -50 -4 -50 -15z"/>
<path d="M2860 1973 c0 -69 -3 -93 -12 -92 -46 6 -56 -1 -60 -41 -4 -46 -5
-45 90 -55 l62 -7 0 36 c0 23 -6 38 -17 45 -16 8 -18 23 -15 104 3 94 3 94
-23 99 l-25 5 0 -94z"/>
<path d="M1550 1991 c0 -21 4 -30 11 -26 6 4 17 -3 26 -15 15 -21 15 -21 37
-2 26 25 113 34 121 14 6 -15 7 -202 1 -202 -15 0 -93 33 -116 50 -34 24 -40
25 -40 4 0 -8 -4 -13 -9 -10 -21 13 -36 -61 -34 -168 1 -59 4 -111 7 -114 3
-3 6 -1 6 4 0 5 15 10 33 9 28 0 32 -3 32 -26 -1 -25 3 -27 55 -33 30 -4 73
-9 94 -13 35 -5 39 -4 33 12 -6 15 -2 17 27 13 l34 -4 1 122 c2 129 0 134 -50
134 -10 0 -19 7 -19 15 0 11 5 12 23 6 40 -16 46 -2 48 112 1 59 5 107 10 107
5 0 9 -25 9 -55 0 -30 5 -55 10 -55 6 0 10 13 10 30 0 22 4 28 15 24 12 -5 15
2 15 30 0 33 -3 36 -27 36 -29 1 -194 15 -300 26 l-63 6 0 -31z"/>
<path d="M7113 2013 c-43 -4 -43 -5 -43 -43 l0 -39 -77 2 -78 2 -2 -137 c-1
-115 1 -136 13 -131 8 3 14 12 14 20 0 23 29 46 50 40 10 -3 21 0 24 7 2 6 5
4 5 -4 1 -9 -5 -22 -11 -29 -10 -11 -10 -13 0 -7 9 6 12 -12 12 -73 0 -54 4
-81 13 -84 6 -3 -4 -6 -24 -6 -31 -1 -38 3 -43 23 -3 14 -15 27 -25 31 -11 3
-22 14 -24 23 -3 9 -5 -9 -6 -41 l-1 -59 63 7 c34 4 66 11 72 16 5 5 18 9 30
9 18 0 21 5 18 38 -3 39 1 35 11 -11 4 -15 10 -26 14 -23 5 3 30 6 58 7 68 2
94 9 94 24 0 16 -32 25 -97 25 -28 0 -55 5 -59 12 -4 7 -3 8 4 4 13 -8 15 -1
38 154 9 63 22 127 30 141 7 15 16 45 20 68 7 46 14 43 -93 34z"/>
<path d="M6850 1831 l0 -169 -57 -6 c-32 -3 -87 -8 -123 -11 -141 -12 -140
-11 -140 -58 0 -23 -3 -59 -6 -79 -6 -37 -6 -38 22 -38 16 0 100 7 187 17
l157 17 0 91 c0 51 3 161 6 246 4 85 3 151 -1 147 -4 -4 -16 -3 -26 3 -18 9
-19 3 -19 -160z"/>
<path d="M740 1951 c0 -5 6 -12 13 -14 6 -3 -3 -6 -21 -6 l-33 -1 3 -165 3
-165 35 -1 c19 -1 47 -2 61 -3 24 -2 27 2 33 42 3 25 6 103 6 173 l0 129 -31
0 c-17 0 -39 5 -50 10 -11 7 -19 7 -19 1z"/>
<path d="M861 1768 c1 -102 4 -163 9 -148 4 14 9 21 9 15 1 -5 6 -3 11 5 7 11
10 7 10 -17 0 -17 -6 -33 -12 -36 -7 -2 2 -6 20 -9 28 -4 32 -2 32 19 0 21 4
23 43 21 l42 -3 0 85 0 85 -37 3 c-34 3 -38 1 -39 -20 -1 -23 -1 -22 -8 2 -5
18 -15 26 -34 28 -26 3 -27 5 -27 67 0 35 -4 67 -10 70 -7 4 -10 -54 -9 -167z"/>
<path d="M5686 1878 c-3 -13 -6 -98 -6 -189 l0 -166 -36 -6 c-20 -3 -90 -12
-155 -18 l-119 -13 0 -50 c0 -28 4 -57 9 -64 11 -18 97 -12 93 6 -1 8 12 12
40 12 24 1 59 3 78 5 19 2 61 7 92 10 l57 6 3 215 c3 193 1 214 -13 214 -9 0
-17 6 -16 13 2 49 -16 65 -27 25z"/>
<path d="M5920 1859 c-41 -4 -94 -11 -117 -14 l-43 -6 0 -214 0 -214 45 -7
c25 -3 55 -4 67 -1 23 6 23 8 20 143 -3 132 -3 137 14 123 10 -8 27 -21 38
-29 67 -53 69 -55 57 -77 -6 -12 -11 -31 -11 -43 0 -12 -17 -42 -37 -67 l-37
-45 84 6 c126 11 116 0 124 128 3 61 4 113 1 117 -3 3 -38 7 -78 9 -40 3 -75
9 -79 16 -14 21 31 136 53 136 14 0 39 26 39 39 0 12 -30 12 -140 0z"/>
<path d="M26 1819 c-8 -43 -7 -131 2 -146 8 -12 123 -35 132 -26 3 2 7 44 8
93 l4 89 -39 6 c-108 17 -100 18 -107 -16z"/>
<path d="M1040 1690 c0 -65 3 -90 13 -90 8 0 7 -4 -3 -10 -11 -7 -11 -10 -2
-10 7 0 10 -5 7 -10 -8 -13 7 -17 73 -23 52 -4 52 -4 52 24 0 26 -3 29 -35 29
-44 0 -54 21 -51 107 2 63 -3 73 -40 73 -11 0 -14 -19 -14 -90z"/>
<path d="M1420 1666 c0 -49 4 -75 10 -71 6 3 10 1 10 -4 0 -6 8 -12 18 -12 9
-1 1 -5 -18 -8 -19 -4 -53 -4 -75 0 -22 4 -68 10 -102 13 -63 7 -63 7 -63 -19
0 -19 5 -25 23 -26 12 0 50 -2 85 -5 55 -5 62 -4 62 13 0 15 3 14 21 -7 11
-14 18 -19 14 -12 -9 18 22 27 48 13 l22 -12 -23 5 c-13 2 -20 0 -16 -6 3 -5
15 -7 27 -4 11 3 29 1 39 -5 15 -8 18 -6 19 13 1 46 -2 193 -5 195 -1 2 -24 6
-49 9 l-47 7 0 -77z"/>
<path d="M6350 1690 c-30 -4 -89 -11 -130 -15 l-75 -6 0 -121 0 -120 65 6 c36
3 118 11 183 18 l117 12 0 83 c0 49 -4 83 -10 83 -5 0 -10 -7 -10 -16 0 -10
-7 -14 -17 -12 -10 2 -17 10 -15 16 1 7 -2 12 -7 12 -6 0 -7 16 -4 35 6 40 7
39 -97 25z"/>
<path d="M7617 1636 c-3 -9 -32 -15 -86 -20 -45 -3 -117 -9 -162 -12 -55 -5
-82 -11 -86 -21 -3 -8 -4 -16 -2 -18 7 -7 352 14 360 22 9 10 0 63 -11 63 -4
0 -10 -6 -13 -14z"/>
<path d="M3110 1565 c5 -14 20 -39 32 -56 19 -26 23 -44 25 -136 3 -111 8
-123 49 -123 12 0 36 -3 53 -6 l31 -6 0 106 c0 88 -3 106 -15 106 -12 0 -15
13 -15 59 l0 60 -57 6 c-32 3 -70 8 -85 10 -25 4 -27 3 -18 -20z"/>
<path d="M2289 1421 c-1 -6 -2 -15 -3 -20 0 -6 -7 -16 -13 -22 -24 -24 -13
-32 36 -26 28 3 106 -2 182 -14 74 -10 137 -19 142 -19 4 0 7 11 7 25 0 18 -5
25 -20 25 -11 0 -19 5 -17 12 2 12 -97 30 -240 44 -51 4 -73 3 -74 -5z"/>
<path d="M1895 1258 c-3 -40 -5 -101 -3 -136 3 -52 1 -61 -12 -56 -18 8 -147
33 -173 33 -14 1 -17 -4 -12 -19 4 -12 0 -26 -9 -36 -9 -8 -16 -28 -16 -44 0
-24 5 -29 28 -33 22 -3 21 -4 -9 -6 -20 0 -61 -6 -90 -11 -38 -7 -77 -7 -129
0 -41 6 -86 13 -100 15 -95 14 -124 17 -119 11 8 -8 255 -46 307 -46 23 0 50
-4 60 -9 18 -10 227 -41 275 -41 16 0 26 4 22 10 -3 5 -6 106 -6 225 0 118 -1
215 -3 215 -3 0 -7 -33 -11 -72z"/>
<path d="M7030 994 c-69 -8 -204 -23 -300 -34 -96 -11 -202 -22 -235 -25 -33
-3 -66 -7 -75 -10 -8 -2 -105 -14 -214 -25 -110 -11 -202 -23 -205 -25 -10
-10 91 -4 259 15 96 12 350 40 563 64 213 24 391 46 394 50 9 9 -42 6 -187
-10z"/>
<path d="M2330 812 c0 -5 64 -16 143 -26 222 -26 500 -67 522 -76 20 -8 207
-34 335 -46 124 -13 53 5 -120 30 -96 14 -263 39 -370 55 -259 40 -249 38
-378 56 -131 18 -132 18 -132 7z"/>
<path d="M5055 774 c-60 -7 -121 -13 -135 -13 -14 0 -52 -5 -85 -10 -33 -6
-109 -15 -170 -21 -60 -7 -123 -13 -140 -15 -430 -48 -479 -54 -458 -62 11 -4
1178 124 1198 132 23 8 -107 2 -210 -11z"/>
<path d="M511 546 c2 -2 63 -14 134 -25 184 -30 175 -27 176 -59 l1 -27 8 30
c4 18 8 -26 8 -109 2 -149 11 -202 13 -70 1 43 4 104 9 134 l7 55 2 -45 c1
-25 6 -63 10 -85 l9 -40 1 41 c0 23 4 56 8 74 3 20 2 31 -3 27 -5 -3 -10 3
-10 14 0 23 -7 23 146 -1 122 -19 178 -24 169 -16 -2 3 -94 19 -204 36 -110
17 -257 39 -326 50 -123 20 -166 24 -158 16z"/>
</g>
</svg>
