<?xml version="1.0" standalone="no"?>
<!DOCTYPE svg PUBLIC "-//W3C//DTD SVG 20010904//EN"
 "http://www.w3.org/TR/2001/REC-SVG-20010904/DTD/svg10.dtd">
<svg version="1.0" xmlns="http://www.w3.org/2000/svg"
 width="1300.000000pt" height="841.000000pt" viewBox="0 0 1300.000000 841.000000"
 preserveAspectRatio="xMidYMid meet">
<metadata>
Created by potrace 1.16, written by Peter Selinger 2001-2019
</metadata>
<g transform="translate(0.000000,841.000000) scale(0.100000,-0.100000)"
fill="#000000" stroke="none">
<path d="M994 8308 c10 -146 29 -837 30 -1093 1 -87 0 -90 -25 -102 -20 -10
-45 -10 -100 -3 -111 14 -187 13 -196 -4 -8 -15 -2 -231 7 -239 3 -3 65 -13
139 -23 112 -16 136 -22 147 -40 21 -31 45 -224 42 -338 -1 -56 1 -263 6 -461
l9 -360 29 -62 c32 -67 32 -110 -2 -168 -10 -16 -21 -43 -24 -60 -4 -16 -14
-37 -21 -45 -7 -8 -15 -33 -17 -55 -3 -35 -6 -40 -30 -43 -61 -7 -63 -62 -2
-62 l36 0 -6 -137 c-6 -168 -21 -353 -29 -373 -3 -8 -8 -55 -12 -105 -8 -113
-22 -173 -45 -185 -14 -8 -31 0 -78 35 -33 25 -69 45 -81 45 -39 0 -126 -114
-119 -155 6 -27 -21 -51 -77 -70 -18 -6 -36 -23 -47 -44 -9 -18 -28 -45 -41
-60 -14 -14 -29 -35 -35 -47 -7 -13 -29 -26 -59 -34 -78 -20 -157 -52 -295
-121 -10 -5 -27 -9 -39 -9 -11 0 -29 -5 -40 -10 -19 -11 -19 -40 -19 -1690 l0
-1678 33 -11 c17 -5 61 -13 97 -17 36 -3 85 -12 110 -19 25 -7 92 -18 150 -25
58 -6 119 -16 135 -22 17 -6 55 -14 85 -18 30 -4 82 -14 115 -24 32 -9 67 -16
78 -16 10 0 31 -7 47 -15 16 -8 64 -20 107 -26 43 -7 91 -18 107 -26 16 -8 72
-19 125 -23 53 -4 137 -18 186 -29 50 -12 101 -25 115 -28 14 -3 34 -13 45
-23 36 -30 83 -44 110 -32 22 10 25 18 25 60 0 35 5 52 20 65 18 15 21 15 26
2 4 -8 16 -15 29 -15 23 0 35 -17 35 -51 0 -11 10 -23 24 -28 24 -10 36 -29
36 -61 0 -10 7 -25 15 -33 7 -8 22 -33 32 -56 l18 -41 173 0 c156 0 173 2 170
16 -6 32 -35 41 -69 22 -40 -23 -70 -23 -118 2 -28 15 -40 29 -44 50 -6 26
-54 99 -92 136 -8 9 -15 21 -15 28 0 7 -10 28 -23 47 -12 19 -31 54 -41 79
-11 25 -28 54 -37 65 -10 11 -20 38 -23 59 -3 21 -11 43 -19 49 -22 19 -66
105 -73 145 -9 46 -48 132 -66 143 -29 19 -48 10 -48 -21 0 -16 5 -30 10 -30
6 0 10 -9 10 -19 0 -11 7 -26 15 -35 19 -19 19 -46 0 -46 -8 0 -15 -9 -15 -20
0 -11 7 -20 15 -20 8 0 15 -9 15 -20 0 -11 -7 -20 -15 -20 -8 0 -15 9 -15 20
0 11 -4 20 -10 20 -5 0 -10 9 -10 19 0 13 -8 21 -22 23 -15 2 -29 16 -40 38
-9 19 -42 85 -71 145 -30 61 -62 131 -70 156 -9 25 -25 64 -37 87 -31 59 -21
95 36 128 78 46 202 93 263 100 141 16 177 -13 274 -213 40 -82 80 -167 89
-188 9 -22 40 -87 67 -145 28 -58 50 -117 51 -131 0 -14 9 -34 20 -44 17 -16
28 -16 114 -6 52 6 122 11 155 11 34 0 83 8 113 19 29 11 72 22 95 26 39 6 43
9 49 43 8 46 30 72 60 72 32 0 38 -15 18 -45 -22 -34 -11 -33 106 10 101 36
130 60 130 105 0 37 21 57 73 70 23 6 83 25 132 41 93 32 168 38 268 21 39 -7
42 -10 45 -41 7 -74 4 -77 -115 -90 -140 -16 -183 -27 -268 -68 -72 -35 -105
-59 -105 -75 0 -11 263 -5 750 18 505 24 539 31 145 33 l-340 1 -22 33 c-17
26 -20 41 -16 79 l5 46 47 6 c25 3 181 11 346 16 276 10 338 14 525 40 36 5
93 9 127 10 60 0 62 -1 65 -27 3 -28 35 -44 70 -35 14 3 15 8 8 23 -17 30 15
38 176 43 82 3 186 9 232 12 75 6 85 9 94 30 9 19 19 24 47 24 20 0 60 3 90 7
l54 6 -6 -25 c-5 -19 -2 -28 10 -32 19 -8 33 4 37 30 3 21 27 26 166 42 59 6
5 9 -255 16 -293 8 -357 10 -395 15 -5 0 -10 8 -10 16 0 8 -4 15 -10 15 -5 0
-10 11 -10 25 0 22 4 25 33 25 18 0 37 4 42 8 6 5 29 14 53 21 23 6 42 16 42
22 0 24 -22 49 -43 49 -12 0 -33 7 -46 16 -19 14 -39 16 -115 11 -112 -8 -134
-14 -141 -38 -4 -10 -12 -19 -19 -19 -7 0 -31 -12 -52 -26 -37 -25 -44 -27
-172 -26 -149 0 -130 -7 -236 91 -55 52 -59 54 -72 36 -8 -10 -14 -24 -14 -29
0 -6 -35 -43 -77 -83 -65 -60 -90 -76 -153 -98 -80 -28 -158 -60 -254 -103
-54 -25 -68 -27 -175 -24 -137 3 -211 11 -211 23 0 5 7 27 16 49 15 37 15 43
-1 82 -9 23 -25 85 -36 138 -31 150 -34 155 -107 211 -73 55 -156 162 -147
189 3 10 2 25 -1 35 -7 17 -8 17 -15 -2 -4 -11 -24 -24 -50 -32 -28 -8 -38
-15 -30 -21 17 -10 10 -14 -73 -39 -37 -12 -94 -21 -126 -21 -44 0 -61 -4 -75
-20 -29 -32 -55 -19 -102 51 -24 35 -56 75 -71 89 -15 14 -36 38 -45 53 -10
15 -43 40 -73 55 -42 20 -56 33 -62 55 -6 22 -17 32 -47 42 -23 9 -54 32 -77
59 -21 24 -66 64 -101 89 -34 24 -82 67 -107 94 -25 27 -55 60 -67 74 -12 13
-40 41 -62 62 -28 28 -40 49 -44 79 -9 65 -65 164 -124 218 -42 39 -53 55 -53
80 0 17 -6 46 -14 65 -11 25 -11 35 -3 39 7 2 6 5 -3 5 -16 1 -90 70 -90 84 0
15 75 85 95 89 21 4 24 22 10 72 -7 27 -6 27 14 17 26 -14 52 -3 27 11 -9 5
-16 16 -16 24 0 8 -7 26 -16 40 -26 39 -6 48 51 24 26 -11 61 -32 77 -45 25
-21 40 -25 98 -25 48 0 73 -5 84 -15 16 -17 73 -20 96 -5 12 8 13 16 1 57 -7
26 -15 66 -17 88 -2 22 -9 52 -15 67 -8 20 -8 36 0 59 6 18 11 46 11 64 0 54
30 137 61 168 16 16 39 48 51 71 11 22 30 51 41 64 11 12 17 22 12 22 -11 0
-112 -68 -120 -80 -3 -6 -13 -10 -21 -10 -12 0 -14 11 -8 62 l7 61 -37 -6
c-36 -6 -50 6 -20 17 23 9 6 27 -20 20 -14 -3 -27 1 -35 10 -12 14 -10 16 8
16 17 0 21 6 21 30 0 20 -5 30 -15 30 -21 0 -30 27 -15 44 15 19 -2 52 -30 61
-26 8 -16 25 16 25 26 0 33 17 9 26 -18 7 -85 -14 -85 -27 0 -5 5 -9 10 -9 20
0 9 -28 -12 -33 -19 -4 -103 -2 -158 4 -44 6 -61 -2 -77 -36 -21 -45 -67 -50
-85 -10 -12 26 -32 33 -43 15 -9 -14 -35 -12 -35 3 0 7 9 30 20 51 19 39 14
76 -12 76 -7 0 -7 4 -1 13 6 6 13 24 16 38 7 29 39 69 55 69 6 0 14 -12 19
-27 12 -35 85 -57 121 -35 29 18 28 28 -3 36 -26 7 -49 46 -85 141 -23 61 -42
167 -35 188 5 10 1 15 -12 14 -20 -2 -21 19 -8 103 9 54 55 106 133 152 90 52
157 29 211 -72 15 -30 36 -68 45 -85 9 -16 16 -40 16 -52 0 -13 11 -29 23 -38
22 -14 24 -21 22 -105 -1 -67 -5 -93 -17 -107 -9 -10 -21 -31 -27 -47 -10 -26
-8 -31 27 -65 35 -35 42 -37 78 -31 80 14 84 18 84 71 0 27 -4 49 -9 49 -5 0
-1 18 10 40 10 21 19 48 19 58 0 10 9 27 20 37 11 10 20 27 20 37 0 13 10 20
31 25 17 3 34 13 37 23 10 24 59 80 71 80 5 0 37 18 70 40 55 37 61 44 61 75
0 28 4 35 20 35 11 0 20 5 20 10 0 6 -6 10 -14 10 -7 0 -20 7 -27 16 -11 14
-10 19 9 34 26 21 27 27 8 32 -15 3 9 34 65 85 58 52 236 48 354 -8 39 -18 71
-37 73 -41 2 -4 25 -23 52 -42 48 -34 51 -35 97 -25 26 6 74 14 106 19 69 10
100 28 117 71 13 29 11 36 -16 86 -19 35 -55 76 -107 121 -43 37 -83 69 -88
70 -5 2 -9 8 -9 13 0 9 28 -4 80 -37 14 -9 0 7 -30 36 -30 29 -72 63 -92 76
-20 13 -39 34 -43 46 -12 38 -204 226 -265 259 -30 16 -86 49 -125 74 -46 29
-82 44 -104 45 -27 0 -44 11 -88 55 -30 30 -61 55 -68 55 -7 0 -23 9 -37 19
-13 11 -44 24 -68 31 -25 6 -67 19 -95 30 -78 29 -138 40 -178 33 -28 -4 -42
-1 -56 11 -18 17 -23 17 -80 0 -34 -9 -61 -20 -61 -24 0 -4 -11 -11 -24 -14
-19 -4 -22 -11 -19 -31 6 -28 -20 -46 -39 -27 -13 13 -44 0 -71 -31 -15 -18
-21 -19 -56 -9 -50 16 -51 15 -51 -8 0 -11 -9 -25 -20 -32 -11 -7 -20 -18 -20
-24 0 -8 -14 -10 -42 -7 -32 3 -39 2 -28 -6 13 -9 13 -11 0 -11 -20 0 -41 57
-34 88 4 12 2 22 -2 22 -5 0 -8 219 -6 492 2 455 4 494 20 511 16 16 27 16
112 7 91 -10 250 -22 487 -36 l111 -7 4 88 c2 59 -1 93 -9 100 -6 7 -74 17
-150 24 -360 31 -538 53 -553 67 -13 13 -15 104 -18 679 l-2 665 -207 0 -206
0 7 -102z"/>
<path d="M9017 8253 c-5 -170 -21 -331 -39 -375 -7 -19 -18 -28 -32 -28 -12 0
-41 -18 -65 -39 -33 -30 -43 -47 -44 -72 -2 -31 2 -36 45 -59 39 -21 50 -33
63 -69 8 -25 15 -53 15 -63 0 -10 4 -18 8 -18 14 0 32 23 32 41 0 9 16 34 35
55 24 28 35 34 35 22 0 -9 -7 -21 -16 -26 -13 -7 -14 -16 -7 -43 5 -19 7 -47
3 -64 -8 -39 -3 -156 10 -218 5 -26 10 -78 10 -115 0 -80 10 -102 35 -81 9 8
24 22 33 32 9 9 24 17 33 17 18 0 29 38 29 102 0 87 59 132 109 84 15 -15 31
-26 37 -26 5 0 18 -7 29 -16 16 -12 21 -31 26 -92 l6 -77 2 85 c4 147 17 291
28 298 5 4 13 18 16 32 4 16 17 30 35 36 27 10 29 16 35 75 3 35 6 220 7 412
l1 347 -105 0 -104 0 -8 -32 c-4 -18 -6 -61 -5 -95 3 -71 -19 -126 -47 -121
-14 3 -19 24 -29 123 -6 66 -12 121 -12 123 -1 1 -46 2 -100 2 l-99 0 -5 -157z
m319 -283 c9 0 13 -4 10 -9 -4 -5 -1 -11 6 -13 16 -6 20 -258 4 -290 -10 -20
-19 -23 -71 -23 l-59 0 -9 39 c-6 24 -17 40 -28 43 -10 3 -20 11 -23 18 -5 15
17 50 32 50 23 0 79 72 86 110 9 51 29 102 34 87 2 -7 10 -12 18 -12z"/>
<path d="M4900 7782 c-42 -13 -37 -63 7 -66 10 -1 35 -7 55 -14 32 -12 41 -11
60 2 12 9 33 16 46 16 29 0 40 27 19 47 -17 18 -144 28 -187 15z"/>
<path d="M3975 7713 c-21 -5 -55 -32 -55 -42 1 -18 22 -34 71 -51 64 -24 75
-24 113 -5 15 8 37 15 47 15 25 0 34 22 20 48 -16 31 -130 51 -196 35z"/>
<path d="M307 7337 c-15 -17 -30 -42 -33 -54 -4 -13 -9 -23 -13 -23 -4 0 -13
-11 -18 -23 -9 -20 -17 -23 -44 -19 -18 3 -42 13 -53 23 -11 11 -30 19 -43 19
-14 0 -23 6 -23 15 0 8 -9 15 -20 15 -13 0 -20 7 -20 20 0 13 -7 20 -20 20
-18 0 -20 -7 -20 -60 0 -47 3 -60 15 -60 10 0 15 -10 15 -29 0 -16 5 -31 11
-33 6 -2 11 -20 12 -41 1 -22 4 -32 9 -24 5 7 8 0 8 -18 0 -16 4 -36 9 -44 10
-16 94 -18 99 -2 4 13 72 15 72 2 0 -10 90 -35 97 -27 3 3 0 21 -7 41 -15 44
-6 102 27 174 19 43 23 63 17 95 -12 74 -34 83 -77 33z"/>
<path d="M3965 7089 c-107 -14 -194 -61 -291 -159 l-81 -81 -129 11 c-71 5
-203 17 -294 25 -91 8 -291 27 -445 41 -154 13 -294 27 -311 30 -38 7 -44 -7
-44 -117 l0 -77 38 -7 c66 -13 193 -24 392 -35 229 -12 352 -25 377 -39 50
-29 105 -42 197 -47 147 -8 142 -6 159 -67 8 -28 17 -75 20 -104 9 -83 105
-211 192 -255 22 -11 54 -33 71 -49 41 -39 128 -53 290 -47 117 5 124 6 187
42 88 48 119 76 171 150 66 95 86 153 86 257 0 148 -44 264 -138 365 -123 132
-271 186 -447 163z"/>
<path d="M7025 6964 c-55 -8 -140 -18 -190 -23 -86 -9 -241 -37 -258 -48 -4
-2 -4 -10 0 -16 4 -7 8 -18 9 -25 4 -24 46 -51 87 -56 116 -14 128 -14 142 1
8 8 15 19 15 24 0 5 6 9 14 9 8 0 16 4 18 9 2 6 14 12 28 15 14 3 42 10 64 15
21 5 45 7 52 4 8 -3 14 -1 14 5 0 5 13 12 29 15 16 3 36 13 44 22 9 8 23 15
31 15 9 0 16 7 16 15 0 8 7 15 16 15 8 0 12 5 9 10 -7 12 -11 12 -140 -6z"/>
<path d="M2225 6950 c-8 -24 -3 -157 6 -171 3 -6 19 -9 35 -7 l29 3 3 89 c3
95 -2 106 -45 106 -13 0 -24 -8 -28 -20z"/>
<path d="M9140 6934 c-25 -8 -52 -12 -60 -9 -8 4 -11 3 -7 -1 4 -4 -2 -12 -12
-18 -120 -70 -174 -111 -271 -205 -62 -61 -109 -114 -105 -120 3 -6 -1 -11 -9
-11 -9 0 -16 -4 -16 -9 0 -6 -11 -22 -25 -37 -14 -15 -25 -35 -25 -45 0 -9 -5
-19 -11 -21 -8 -3 -8 -15 -1 -43 12 -44 7 -104 -8 -119 -6 -6 -10 -26 -10 -46
l0 -37 48 12 c42 11 50 10 71 -6 25 -20 101 -26 101 -9 0 7 6 7 18 2 9 -5 52
-12 96 -14 59 -4 81 -9 88 -22 5 -9 16 -16 25 -16 8 0 32 -13 52 -28 20 -16
63 -40 96 -54 33 -14 77 -40 97 -58 34 -30 36 -34 21 -46 -15 -10 -8 -18 62
-61 122 -76 132 -89 140 -181 4 -42 12 -88 17 -102 10 -27 66 -79 86 -80 6 0
12 -4 12 -10 0 -5 7 -10 15 -10 8 0 19 17 26 41 15 47 44 70 52 39 3 -11 1
-20 -4 -20 -4 0 -6 -38 -3 -84 3 -53 1 -87 -6 -91 -5 -3 -10 -19 -10 -35 0
-66 -67 -167 -193 -286 -89 -85 -99 -92 -163 -108 -38 -10 -74 -22 -80 -27 -7
-5 -29 -18 -50 -29 l-39 -19 40 -1 c33 0 54 -11 122 -62 58 -42 86 -71 95 -94
12 -33 54 -56 67 -36 3 5 19 12 35 16 17 4 43 17 60 29 17 12 39 27 50 32 11
6 31 33 45 60 14 28 38 66 53 85 14 19 39 61 54 93 25 55 47 77 61 64 3 -3 -4
-25 -16 -49 -30 -63 -31 -92 -3 -96 14 -2 22 2 22 12 0 37 19 21 29 -24 10
-46 9 -55 -16 -103 -15 -28 -30 -59 -33 -67 -4 -8 -24 -27 -46 -42 -29 -19
-42 -24 -52 -16 -9 8 -11 7 -7 -3 12 -32 -162 -109 -247 -109 -56 0 -126 34
-134 65 -3 14 -21 44 -40 67 -19 24 -34 50 -34 59 0 30 -14 29 -26 -1 -14 -31
-30 -41 -147 -84 -102 -37 -109 -31 -98 93 7 89 5 97 -30 115 -32 16 -65 67
-84 131 -20 70 -19 72 9 44 36 -36 129 -65 161 -51 14 6 25 18 25 25 0 18 130
138 141 131 5 -3 9 8 9 23 0 18 -8 33 -21 41 -23 15 -59 7 -59 -12 0 -20 -32
-44 -37 -28 -7 20 -21 14 -25 -10 -2 -15 -10 -23 -23 -23 -11 0 -23 -5 -28
-12 -19 -30 -118 -22 -147 12 -10 12 -3 14 44 11 31 -2 59 1 62 6 3 5 14 6 24
3 10 -3 21 -1 25 5 4 6 -13 10 -47 11 -46 0 -115 16 -79 18 11 1 11 4 1 16 -7
8 -16 15 -21 15 -5 0 -9 -7 -9 -15 0 -10 -10 -15 -30 -15 -20 0 -30 -5 -30
-15 0 -8 5 -15 10 -15 6 0 10 -6 10 -14 0 -8 4 -16 9 -18 13 -4 25 -58 14 -58
-5 0 -16 15 -25 33 -8 17 -45 69 -81 114 -40 50 -64 89 -62 100 12 59 13 83 6
83 -5 0 -12 -18 -16 -40 -4 -22 -8 -40 -9 -40 -11 0 -66 34 -80 49 -11 12 -25
17 -38 13 -20 -5 -20 -5 -2 -20 17 -13 15 -14 -26 -9 -58 7 -91 -9 -175 -86
-80 -73 -93 -97 -112 -196 -13 -70 -18 -119 -38 -401 -9 -112 16 -333 46 -414
10 -28 47 -134 82 -236 34 -102 75 -206 91 -232 15 -26 36 -74 45 -105 10 -32
29 -83 43 -113 40 -87 42 -100 22 -115 -17 -12 -17 -18 -7 -56 9 -35 9 -49 -3
-71 -19 -38 -18 -71 6 -101 11 -14 20 -36 20 -50 0 -17 11 -34 33 -51 l32 -26
-27 -25 c-16 -14 -28 -29 -28 -34 0 -17 32 -71 48 -81 20 -12 -13 -6 -92 16
-27 8 -53 14 -58 14 -13 0 -9 -67 22 -388 66 -664 80 -815 100 -1036 12 -126
25 -261 30 -300 5 -39 10 -93 10 -119 0 -46 1 -48 27 -45 19 2 28 -2 28 -12 0
-13 65 -15 525 -15 289 0 589 -4 668 -9 105 -7 142 -6 142 3 0 8 82 11 307 11
285 0 338 3 267 16 -15 3 -32 8 -37 11 -12 7 -1359 5 -1615 -3 -101 -3 -202
-2 -223 1 -39 7 -39 8 -33 41 4 20 2 40 -5 48 -16 19 42 41 67 25 14 -9 42 -3
122 24 58 20 121 39 140 42 32 6 34 5 20 -9 -8 -8 -42 -26 -75 -40 l-60 -25
259 0 c207 0 264 3 287 14 36 19 48 19 23 0 -17 -13 -14 -14 39 -15 32 0 67 5
78 10 13 7 19 7 19 0 0 -6 27 -10 67 -10 61 0 73 4 136 42 61 37 78 42 155 49
48 4 164 8 257 8 189 1 222 6 204 27 -6 8 -19 14 -28 14 -24 0 -61 42 -61 68
0 19 6 22 38 22 20 0 46 -7 56 -15 27 -20 82 -19 90 1 8 22 -11 44 -38 44 -67
0 -136 100 -147 215 -4 39 -17 153 -28 255 -19 164 -30 494 -17 507 2 3 14 -1
26 -7 18 -9 21 -18 16 -41 -10 -54 28 -109 41 -59 5 20 6 20 24 -1 11 -12 20
-26 20 -31 1 -4 2 -11 3 -16 2 -15 42 -59 63 -70 11 -6 47 -41 79 -78 51 -57
56 -68 46 -85 -7 -10 -8 -19 -3 -19 5 0 12 6 14 13 4 8 14 3 31 -16 32 -35 25
-55 -11 -32 -32 21 -38 14 -36 -41 2 -47 -11 -59 -21 -20 -4 18 -15 25 -42 31
-20 3 -37 5 -39 3 -4 -4 33 -190 51 -253 8 -27 18 -75 24 -105 31 -173 66
-300 81 -300 5 0 9 -19 9 -42 0 -27 3 -38 9 -30 6 10 20 6 61 -20 l53 -33 241
-1 c133 0 274 -4 315 -8 50 -5 71 -4 67 3 -7 11 56 -9 94 -29 21 -11 21 -12 3
-25 -16 -13 -1 -14 110 -15 70 0 127 2 127 3 0 2 -9 84 -20 183 -11 98 -23
206 -26 239 -8 72 -17 85 -59 85 -33 0 -159 51 -170 70 -8 13 -5 13 45 -5 23
-8 63 -15 89 -15 33 0 42 -3 31 -10 -13 -8 -12 -10 3 -10 16 0 22 15 18 50 -4
37 -10 41 -33 21 -12 -12 -24 -21 -27 -21 -11 0 -36 20 -26 20 5 0 -1 7 -13
16 -12 8 -31 13 -42 9 -26 -8 -99 15 -113 36 -17 24 -59 27 -90 6 -34 -22 -59
-22 -90 3 -14 11 -31 20 -39 20 -8 0 -19 5 -25 11 -7 7 -15 6 -26 -5 -27 -28
-76 -20 -111 18 -17 19 -51 51 -76 71 -25 20 -65 56 -90 79 -25 24 -55 48 -68
55 -12 7 -20 16 -17 22 4 5 0 9 -7 9 -8 0 -23 7 -34 16 -10 8 -14 13 -9 10 6
-2 12 6 13 20 1 13 -3 24 -8 24 -6 0 -9 -6 -7 -12 4 -23 -23 -13 -71 25 -26
21 -63 48 -82 60 -24 16 -36 33 -41 57 -4 19 -15 40 -25 47 -10 7 -14 13 -10
13 4 0 26 -15 49 -33 23 -19 58 -42 77 -53 19 -10 44 -26 55 -34 11 -8 7 0
-10 18 -40 44 -147 120 -188 134 -36 11 -67 42 -67 66 0 8 -7 24 -17 34 -9 10
-11 18 -6 18 23 0 281 -129 294 -147 8 -11 25 -26 39 -33 14 -7 41 -26 60 -41
38 -30 85 -46 93 -32 9 14 -3 26 -68 73 -48 34 -181 145 -205 170 -12 13 -79
60 -85 60 -4 0 -20 9 -35 20 -25 18 -28 25 -23 55 3 21 1 41 -7 50 -21 25 5
18 62 -17 29 -18 58 -36 63 -41 6 -4 35 -23 65 -42 45 -28 55 -39 55 -61 0
-30 14 -40 98 -70 27 -10 70 -36 95 -59 26 -23 53 -40 60 -37 8 2 33 -3 56
-12 28 -11 56 -14 82 -10 61 10 85 7 102 -10 11 -10 12 -16 4 -16 -7 0 -12 -4
-12 -10 0 -5 6 -7 14 -4 8 3 29 -2 48 -11 32 -16 32 -15 -10 24 l-43 40 35 -6
c43 -7 45 2 14 51 -15 23 -44 45 -83 64 -97 48 -186 130 -185 171 1 13 2 13
11 -1 15 -27 79 -67 96 -61 7 3 21 19 29 35 16 30 15 31 -26 70 -32 31 -46 39
-65 34 -21 -5 -32 4 -80 61 -30 37 -61 80 -67 95 -7 15 -16 28 -19 28 -4 0 -6
43 -6 96 0 86 1 95 17 91 10 -2 24 -1 31 4 11 6 11 12 -1 33 -7 14 -20 28 -29
31 -21 6 -71 53 -71 65 0 6 17 10 38 10 50 0 70 13 53 34 -11 13 -11 16 3 16
18 0 22 15 6 25 -6 4 -16 21 -24 38 -7 18 -34 51 -59 74 -25 23 -42 44 -39 47
3 3 28 6 56 6 50 1 50 1 25 15 -15 8 -42 17 -60 21 -19 3 -41 7 -49 9 -8 2
-21 4 -27 4 -7 1 -13 6 -13 11 0 6 12 8 28 5 26 -6 26 -6 8 9 -19 15 -18 16
12 12 17 -2 39 -9 47 -16 21 -18 40 1 31 32 -3 15 -27 34 -66 56 -34 18 -59
39 -57 45 2 7 22 13 44 15 39 3 42 1 64 -37 12 -22 26 -38 31 -35 4 3 8 29 8
59 0 40 -8 68 -30 112 -16 31 -30 70 -30 85 0 26 2 28 28 22 15 -4 29 -8 31
-10 11 -10 42 20 38 36 -3 11 0 21 6 23 8 2 5 13 -6 31 -11 17 -24 25 -33 22
-8 -3 -23 3 -34 14 -11 11 -27 20 -35 20 -9 0 -12 6 -9 15 4 8 12 15 20 15 7
0 19 9 27 21 8 11 16 16 18 10 2 -5 15 -1 28 10 21 17 23 28 24 101 1 57 -2
83 -11 86 -20 6 -14 32 11 41 24 9 65 82 77 137 6 24 3 41 -11 64 -11 17 -19
36 -19 43 0 7 -8 20 -19 29 -16 13 -18 28 -16 104 2 64 -2 96 -12 112 -14 23
-15 23 -34 6 -26 -23 -24 -9 6 41 13 23 27 57 30 75 11 62 -16 92 -43 49 -7
-12 -16 -18 -19 -15 -3 3 0 12 6 20 14 16 28 126 17 126 -4 0 -16 -5 -27 -11
-19 -10 -19 -9 -4 27 26 63 12 124 -29 124 -9 0 -16 5 -16 10 0 6 7 10 15 10
8 0 15 5 15 10 0 6 -4 10 -10 10 -5 0 -10 7 -10 15 0 23 -41 75 -59 75 -11 0
-10 -5 6 -22 14 -15 18 -29 14 -42 -7 -17 -9 -16 -24 8 -10 14 -24 26 -32 26
-20 0 -19 27 1 38 12 7 -5 20 -78 56 -51 27 -107 56 -123 67 -39 23 -166 51
-181 39 -6 -6 -15 -5 -21 1 -8 8 -21 8 -39 2 -34 -11 -44 -66 -17 -95 9 -10
13 -21 10 -25 -4 -3 -2 -12 5 -20 13 -16 20 -163 7 -163 -5 0 -9 -8 -9 -17 -1
-17 -2 -17 -13 -1 -9 11 -18 14 -27 8 -18 -11 -30 6 -30 43 0 31 -47 137 -60
137 -14 0 8 61 27 76 10 7 14 14 10 14 -4 0 3 12 17 26 14 16 23 36 21 51 -2
19 1 22 18 17 15 -5 19 -3 14 10 -3 8 -2 18 3 21 11 7 2 60 -16 97 -19 38 -17
48 9 49 l22 0 -23 10 c-22 8 -23 13 -17 64 7 52 6 55 -14 55 -23 0 -26 11 -12
38 16 33 23 93 9 90 -7 -2 -16 13 -22 35 -5 20 -13 37 -18 37 -5 0 -6 11 -2
25 6 25 -1 30 -33 26 -7 -1 -13 3 -13 9 0 5 5 10 11 10 5 0 7 5 3 11 -4 7 -21
9 -42 6 -37 -7 -77 8 -67 24 4 5 15 9 26 9 10 0 19 5 19 10 0 6 -9 10 -21 10
-31 0 -61 20 -55 36 8 20 -11 17 -24 -3 -11 -17 -11 -17 -6 -1 3 10 -1 24 -10
32 -13 13 -12 16 3 25 10 6 13 11 7 11 -6 0 -19 15 -29 33 -10 17 -31 43 -47
56 l-30 24 16 -31 c9 -17 20 -34 26 -37 6 -4 8 -10 5 -15 -3 -5 -1 -11 5 -15
15 -9 12 -25 -4 -25 -15 0 -56 51 -60 73 -3 21 -20 43 -38 50 -10 3 -18 11
-18 17 0 8 6 8 20 0 24 -13 26 -5 5 17 -21 20 -9 36 16 22 11 -6 27 -8 35 -5
7 3 13 0 11 -6 -1 -6 3 -12 9 -15 7 -2 10 6 8 23 l-2 26 19 -21 c30 -32 30
-26 -2 37 -16 31 -29 60 -29 65 0 16 19 6 25 -13 3 -11 12 -20 20 -20 10 0 25
-31 29 -62 1 -3 4 -10 9 -14 12 -12 8 -24 -9 -24 -8 0 -12 -5 -9 -10 4 -6 10
-8 14 -5 5 2 29 -14 55 -36 38 -34 46 -37 46 -22 0 11 -3 23 -7 27 -5 4 -9 12
-9 17 -1 5 -2 12 -3 17 -1 4 -15 22 -31 41 -17 18 -30 37 -30 41 0 4 -13 21
-30 38 -16 18 -30 34 -30 36 0 3 -33 38 -74 79 -77 79 -138 114 -296 172 -64
24 -93 28 -200 31 -90 2 -138 -1 -170 -12z m1039 -3004 c25 -67 29 -87 27
-125 -1 -22 -6 -48 -10 -57 -5 -10 -6 -24 -3 -32 7 -17 -13 -86 -24 -86 -15 0
-67 50 -72 70 -3 11 -2 20 2 20 3 0 6 15 6 32 0 40 26 49 52 19 9 -12 20 -21
23 -21 15 0 -5 69 -31 108 -23 34 -27 47 -19 67 5 14 7 32 3 41 -5 14 -3 15
14 6 11 -6 25 -25 32 -42z m-1135 -1572 c21 -2 34 -12 47 -35 10 -18 14 -33 9
-33 -6 0 -10 -7 -10 -15 0 -9 9 -15 21 -15 19 0 21 -4 16 -41 -4 -32 -2 -39 9
-35 11 4 14 -4 14 -34 0 -22 -5 -40 -11 -40 -5 0 -8 4 -5 8 2 4 1 14 -5 22 -9
16 -13 -11 -11 -78 1 -23 -5 -36 -21 -46 -21 -14 -205 -66 -231 -66 -13 0 -28
127 -43 342 l-5 76 98 -4 c55 -2 112 -5 128 -6z m-239 -153 c3 -35 4 -69 1
-74 -4 -5 -2 -12 4 -16 13 -8 13 -85 -1 -85 -6 0 -3 -7 5 -16 27 -26 20 -44
-19 -44 -25 0 -37 6 -46 21 -9 17 -8 23 2 30 11 7 11 11 -3 21 -19 14 -46 182
-35 212 4 11 18 16 46 16 l39 0 7 -65z m2171 -746 c11 -18 86 -49 120 -49 22
0 36 -8 52 -30 12 -16 22 -35 22 -42 0 -11 -2 -11 -9 0 -6 10 -10 10 -21 -3
-9 -11 -10 -18 -1 -29 21 -25 -35 -33 -133 -20 -40 6 -44 8 -29 19 10 7 30 15
46 19 31 7 32 11 13 58 -11 26 -24 38 -55 48 -40 13 -48 20 -34 33 10 10 21 8
29 -4z"/>
<path d="M308 6933 c-10 -2 -18 -11 -18 -19 0 -8 -8 -17 -17 -20 -10 -3 -28
-10 -40 -16 -12 -6 -38 -7 -60 -3 -64 11 -127 7 -139 -10 -6 -8 -16 -15 -23
-15 -8 0 -11 -258 -11 -1001 l0 -1001 85 5 c65 4 87 2 93 -8 6 -11 20 -10 76
9 38 13 73 31 78 40 13 22 13 194 2 386 -10 154 -9 167 8 189 14 18 17 33 12
60 -16 87 -38 101 -156 101 -76 0 -98 12 -98 51 0 31 31 68 58 69 7 0 10 5 7
10 -3 6 3 10 14 10 12 0 21 7 21 15 0 8 -9 15 -20 15 -13 0 -20 7 -20 20 0 26
5 27 113 35 l89 7 -2 126 c-1 70 4 230 10 355 10 180 10 240 1 280 -11 44 -10
59 3 96 16 45 21 134 10 190 -5 26 -11 31 -33 30 -14 -1 -34 -3 -43 -6z"/>
<path d="M5955 6820 c-33 -4 -118 -12 -190 -19 -71 -7 -173 -18 -225 -26 -53
-8 -107 -15 -121 -15 -50 0 -63 -20 -60 -96 3 -90 10 -97 86 -83 33 6 94 14
135 19 41 4 102 13 135 20 33 7 70 14 82 16 12 2 35 15 51 29 16 13 53 30 81
36 28 6 51 15 51 20 0 5 11 9 25 9 18 0 31 9 43 30 9 16 22 30 27 30 6 0 3 5
-5 10 -13 9 -13 11 0 20 17 11 -18 11 -115 0z"/>
<path d="M4892 6465 c-35 -8 -78 -23 -95 -35 -18 -11 -45 -28 -60 -37 -37 -24
-94 -140 -109 -223 -6 -37 -18 -70 -27 -77 -9 -6 -38 -15 -66 -18 -63 -9 -159
-52 -222 -100 -71 -53 -165 -163 -161 -188 3 -20 9 -21 108 -19 58 1 130 4
160 7 30 3 107 1 171 -4 163 -14 193 -1 142 59 -14 17 -23 33 -20 37 7 7 148
5 155 -2 3 -3 -6 -26 -20 -52 -28 -52 -29 -123 -2 -123 8 0 25 -18 39 -40 14
-22 30 -40 36 -40 15 0 39 -64 39 -107 l1 -38 14 34 c18 39 18 44 5 36 -6 -3
-7 1 -4 9 3 9 12 16 20 16 25 0 54 38 60 80 l7 40 61 1 c33 1 68 3 76 4 8 1
23 3 33 4 22 1 22 11 -4 43 -17 21 -28 26 -49 22 -41 -9 -96 33 -92 69 2 19
-1 27 -12 27 -11 0 -16 10 -16 34 0 36 11 44 97 66 59 15 114 51 107 70 -4 8
-9 34 -11 57 -5 38 -3 43 21 54 16 7 25 18 22 26 -3 7 -2 13 3 13 36 0 -8 147
-57 192 -66 61 -120 90 -193 104 -86 16 -76 16 -157 -1z"/>
<path d="M9000 5809 c-25 -6 -65 -13 -89 -17 -49 -8 -58 -19 -38 -45 13 -19
-3 -20 267 10 56 6 66 15 41 37 -24 22 -117 29 -181 15z"/>
<path d="M8930 5676 c0 -9 5 -16 10 -16 6 0 10 -7 10 -16 0 -9 10 -24 23 -35
27 -23 111 -26 133 -4 8 8 21 12 28 9 8 -3 17 -1 21 5 3 6 21 11 38 11 18 0
44 8 58 18 26 17 22 17 -133 19 -105 1 -164 6 -174 14 -11 9 -14 8 -14 -5z"/>
<path d="M4070 5514 c0 -15 10 -43 22 -62 12 -19 24 -51 27 -71 6 -32 10 -36
46 -43 47 -8 585 -10 633 -1 41 7 41 20 -3 38 -28 12 -82 14 -318 8 -156 -3
-295 -3 -310 1 -22 5 -27 12 -27 37 0 25 -53 119 -67 119 -2 0 -3 -12 -3 -26z"/>
<path d="M6094 5399 c-82 -8 -259 -58 -344 -98 -56 -26 -112 -71 -141 -114
l-22 -32 29 25 c42 36 70 50 101 50 24 -1 26 -2 10 -11 -10 -6 -28 -27 -41
-47 -13 -20 -36 -44 -52 -52 -33 -17 -63 -49 -64 -67 0 -7 -4 -13 -9 -13 -5 0
-12 6 -14 13 -9 20 -42 -30 -61 -90 -9 -29 -14 -58 -11 -63 3 -6 1 -10 -5 -10
-7 0 -9 -8 -5 -20 4 -11 1 -45 -6 -75 -9 -40 -9 -58 -1 -68 6 -7 8 -18 3 -23
-4 -5 -18 -36 -31 -69 -13 -33 -27 -65 -32 -72 -20 -26 -49 -248 -51 -396 -2
-150 0 -166 39 -287 16 -51 19 -160 4 -160 -5 0 -10 11 -10 25 0 30 -16 33
-25 5 -10 -30 -20 -24 -35 20 -14 41 -29 50 -48 27 -13 -16 -70 -21 -86 -8 -6
5 -41 11 -76 13 -61 3 -65 2 -78 -24 -7 -16 -17 -28 -23 -28 -5 0 -9 -6 -9
-13 0 -7 -13 -27 -30 -45 -16 -18 -30 -37 -30 -42 0 -5 -18 -19 -40 -30 -22
-11 -40 -25 -40 -30 0 -5 -10 -21 -22 -35 -17 -20 -28 -24 -50 -20 -18 4 -28
2 -28 -5 0 -6 -9 -20 -20 -32 -11 -12 -20 -28 -20 -35 0 -7 -11 -13 -25 -13
-25 0 -33 -14 -15 -25 6 -3 10 -12 9 -18 0 -9 -2 -9 -6 1 -8 20 -40 14 -57
-13 -9 -13 -30 -32 -47 -41 -17 -8 -28 -18 -25 -21 13 -14 -17 -32 -44 -27
-16 4 -31 1 -35 -5 -5 -8 1 -10 19 -5 29 7 34 -7 11 -26 -8 -7 -15 -23 -15
-36 0 -25 -15 -40 -25 -24 -14 23 -22 7 -18 -33 4 -31 1 -48 -10 -59 -9 -9
-13 -18 -10 -21 3 -3 12 0 20 8 8 8 25 15 38 15 22 0 40 23 36 46 -2 15 22 24
38 14 9 -5 10 -10 2 -14 -14 -9 -15 -76 -1 -76 6 0 10 8 10 17 0 9 7 24 16 34
13 14 13 20 2 38 -11 18 -10 23 5 38 16 16 17 15 23 -16 4 -20 11 -30 19 -27
26 9 26 -52 0 -107 -13 -28 -29 -72 -35 -97 -7 -25 -16 -50 -20 -55 -5 -6 -14
-51 -20 -100 -8 -68 -8 -100 1 -137 7 -27 17 -47 22 -45 10 3 10 6 2 51 -6 31
5 95 47 274 6 28 17 52 24 52 11 0 28 52 40 125 10 55 17 61 25 20 11 -54 0
-213 -17 -247 -8 -15 -14 -35 -14 -44 0 -9 -7 -22 -16 -29 -11 -8 -16 -25 -15
-51 3 -75 2 -99 -5 -136 -7 -42 -20 -50 -27 -15 -2 12 -5 0 -6 -28 -2 -63 -14
-87 -30 -57 -6 11 -11 27 -11 35 0 8 -7 17 -15 21 -8 3 -15 14 -15 24 0 11 -7
25 -15 32 -8 7 -15 21 -15 31 0 10 -4 21 -10 24 -24 15 -79 134 -86 185 -3 30
-13 65 -20 77 -8 12 -14 31 -14 42 0 11 -5 23 -11 27 -6 3 -17 22 -25 41 -16
37 -51 57 -72 40 -7 -6 -9 -13 -4 -16 5 -3 21 -30 35 -59 27 -54 36 -112 17
-112 -5 0 -10 -5 -10 -11 0 -7 9 -9 23 -5 21 5 27 -2 52 -54 16 -33 25 -63 21
-67 -4 -4 -27 13 -51 38 -57 61 -71 65 -89 30 -19 -36 -11 -66 33 -121 34 -42
49 -65 75 -115 6 -11 44 -51 84 -89 63 -60 87 -96 66 -96 -4 0 -31 21 -61 48
-57 49 -103 82 -115 82 -5 0 -8 -9 -8 -21 0 -27 53 -83 110 -117 32 -19 40
-28 27 -30 -21 -4 -22 -16 -1 -47 9 -14 15 -25 12 -25 -2 0 -53 48 -113 107
-61 58 -116 107 -123 109 -10 2 -37 21 -90 65 -8 7 -35 23 -60 36 -26 14 -55
32 -65 41 -19 17 -81 29 -200 38 -72 6 -79 5 -93 -15 -9 -12 -19 -19 -24 -16
-9 5 -146 -122 -139 -129 5 -6 66 7 178 37 94 26 135 26 90 1 -13 -7 -36 -13
-51 -14 -15 0 -58 -12 -95 -27 -51 -20 -62 -28 -47 -33 10 -4 35 -3 54 3 51
14 147 12 210 -5 43 -12 56 -20 61 -39 l7 -24 7 23 c4 12 9 22 11 22 19 0 101
-35 107 -46 4 -8 14 -14 21 -14 7 0 30 -13 51 -30 47 -38 68 -39 59 -5 -3 14
-3 25 2 25 9 0 97 -67 148 -114 37 -34 39 -39 41 -97 1 -39 7 -64 16 -69 25
-16 4 -17 -31 -2 -103 45 -175 68 -280 87 -41 8 -95 19 -120 24 -50 10 -55 9
-46 -15 4 -11 13 -14 28 -11 12 4 27 3 32 -2 6 -4 31 -13 56 -21 112 -32 199
-67 211 -83 10 -13 74 -26 204 -42 66 -7 138 -17 160 -20 32 -5 51 -1 95 22
30 15 56 33 58 40 2 6 -7 20 -19 32 -17 16 -23 34 -25 83 -2 35 -8 112 -12
172 -8 94 -5 148 9 191 6 20 -13 155 -23 155 -5 0 -7 -9 -3 -19 3 -11 1 -22
-5 -26 -6 -4 -10 7 -10 29 0 29 4 36 20 36 19 0 21 5 34 102 4 29 2 36 -10 31
-9 -3 -14 1 -14 12 0 11 5 15 14 12 25 -10 35 16 31 82 -2 47 1 64 11 68 8 3
14 12 14 20 0 13 3 13 15 3 8 -7 15 -23 15 -37 0 -13 -7 -26 -15 -29 -26 -10
-16 -23 23 -30 20 -3 42 -13 49 -21 9 -12 15 -12 31 -2 25 16 52 5 52 -21 0
-11 5 -20 10 -20 6 0 10 9 10 20 0 11 5 20 10 20 6 0 10 -4 10 -10 0 -5 5 -10
11 -10 11 0 9 16 -6 54 -7 15 -5 17 14 11 15 -4 29 -1 40 9 15 14 26 15 65 6
26 -6 52 -8 57 -5 5 4 9 1 9 -6 0 -9 4 -9 15 1 20 17 33 5 40 -38 4 -20 13
-53 20 -72 22 -54 34 -136 37 -237 2 -66 7 -93 16 -93 6 0 12 9 12 20 0 11 5
20 10 20 6 0 10 -9 10 -20 0 -29 44 -70 75 -70 l26 0 -6 118 c-4 64 -14 136
-22 159 -9 26 -13 55 -9 76 3 18 3 37 -1 41 -9 9 -13 165 -4 170 8 5 78 -66
109 -111 12 -17 38 -37 57 -43 30 -10 36 -18 50 -68 9 -31 24 -68 33 -82 32
-47 42 -65 54 -90 7 -14 17 -28 21 -31 5 -4 4 -9 -1 -13 -6 -4 -9 -13 -5 -22
3 -8 -4 -25 -15 -37 -25 -27 -27 -87 -3 -87 25 0 39 13 46 43 4 16 14 31 22
34 7 3 23 27 34 53 12 27 30 57 41 67 21 18 21 18 15 -38 -3 -33 -18 -81 -35
-115 -16 -32 -42 -95 -57 -139 -14 -44 -33 -90 -41 -103 -13 -20 -13 -23 1
-28 9 -4 27 -2 41 5 39 18 74 14 74 -8 0 -10 29 -67 65 -126 36 -59 65 -108
65 -110 0 -2 17 -32 38 -67 68 -111 142 -238 142 -244 0 -3 13 -24 28 -47 16
-23 77 -123 137 -222 59 -99 116 -192 126 -206 10 -15 21 -38 24 -51 6 -22 0
-27 -52 -50 -39 -17 -94 -29 -168 -38 -60 -7 -119 -16 -130 -21 -15 -7 -13 -8
10 -4 33 5 48 -2 58 -27 7 -21 75 -32 157 -26 52 4 59 2 64 -16 3 -11 1 -25
-5 -32 -17 -20 118 -27 296 -15 228 16 217 11 232 105 7 43 19 94 28 113 12
25 15 48 10 87 -8 59 1 119 16 110 5 -3 8 -61 6 -134 -3 -71 -2 -128 2 -127
10 2 118 -13 135 -19 24 -9 19 -25 -6 -20 -13 3 -49 7 -80 10 -56 6 -58 5 -58
-17 0 -23 2 -24 78 -20 209 9 781 23 967 24 116 0 204 3 197 6 -9 3 -6 12 12
28 17 16 23 30 19 44 -5 20 -2 21 98 23 57 1 116 2 131 2 14 1 29 4 33 8 7 7
-15 241 -81 868 -33 323 -51 448 -53 389 -1 -26 -2 -27 -38 -17 -99 24 -117
11 -129 -97 -4 -30 -11 -55 -15 -55 -5 0 -9 -4 -9 -10 0 -5 16 -10 35 -10 19
0 35 -4 35 -9 0 -5 21 -7 48 -5 72 5 84 5 86 2 1 -2 -1 -66 -4 -143 -3 -77 -3
-143 0 -147 3 -5 4 -23 2 -42 -3 -29 -8 -35 -37 -40 -47 -9 -63 1 -70 45 -4
21 -11 39 -16 39 -5 0 -9 7 -9 15 0 8 -8 15 -17 15 -23 0 -65 -64 -57 -85 4
-10 -4 -27 -22 -46 -22 -23 -35 -29 -64 -27 -33 3 -35 2 -32 -26 5 -38 -20
-30 -29 10 -48 206 -95 378 -147 541 -37 115 -90 188 -165 229 -28 15 -117 36
-147 34 -59 -3 -94 -10 -150 -28 -36 -12 -76 -21 -90 -20 -14 0 -44 -5 -67
-12 -66 -19 -74 -12 -69 67 3 45 0 73 -9 86 -11 15 -10 26 6 70 13 35 15 53 8
58 -8 4 -8 12 0 25 6 11 20 53 32 94 11 41 32 97 45 124 14 27 26 57 27 67 2
10 6 22 10 25 10 11 9 24 -3 24 -5 0 -10 -6 -10 -14 0 -8 -3 -16 -7 -18 -14
-6 -60 -103 -103 -220 -24 -64 -48 -114 -54 -111 -5 3 -6 1 -2 -5 4 -7 2 -20
-3 -29 -6 -11 -11 -13 -11 -5 0 7 -5 10 -10 7 -6 -4 -9 -18 -9 -33 2 -23 -29
-102 -60 -152 -11 -19 -31 -103 -31 -132 0 -17 -3 -19 -12 -10 -14 14 8 203
26 215 8 5 7 9 -1 15 -7 4 -17 29 -22 55 -5 26 -15 55 -23 65 -78 94 -75 91
-75 63 0 -42 -26 -120 -31 -96 -2 11 -9 23 -15 27 -7 4 -7 11 2 22 10 12 9 17
-8 26 -19 10 -20 8 -15 -19 5 -23 2 -32 -14 -40 -19 -10 -20 -17 -15 -83 7
-81 -9 -89 -28 -13 -6 24 -19 51 -29 60 -17 16 -19 15 -28 -2 -6 -12 -4 -42 9
-93 16 -68 16 -76 2 -87 -15 -11 -15 -13 1 -19 10 -4 22 -2 29 5 6 6 17 11 24
11 8 0 5 -8 -8 -21 -17 -17 -25 -19 -50 -10 -18 6 -29 6 -29 0 0 -5 -11 -9
-25 -9 -14 0 -25 -5 -25 -11 0 -8 -16 -10 -47 -7 -27 3 -42 3 -35 1 6 -3 12
-11 12 -19 0 -8 10 -14 26 -14 14 0 23 4 19 10 -3 5 1 10 9 10 9 0 16 -4 16
-10 0 -5 16 -10 35 -10 31 0 35 -3 35 -25 0 -31 -14 -32 -35 -2 -12 15 -19 18
-22 10 -9 -24 -68 -15 -94 15 -24 27 -24 27 -27 4 -4 -27 -32 -30 -32 -2 0 11
-7 20 -15 20 -8 0 -15 -7 -15 -15 0 -23 -15 -18 -28 9 -13 28 -7 36 25 36 13
0 23 5 23 10 0 6 -27 10 -60 10 -33 0 -60 4 -60 10 0 6 22 10 48 10 36 0 54 5
67 20 10 11 13 20 7 20 -6 0 -14 -4 -17 -10 -9 -15 -35 -12 -35 4 0 16 21 26
56 26 13 0 24 5 24 10 0 6 -16 10 -35 10 -40 0 -48 14 -9 17 27 1 44 17 44 40
0 7 -18 16 -40 19 -39 6 -53 31 -16 28 17 -2 20 5 8 22 -10 16 -80 25 -88 12
-4 -6 1 -15 10 -20 22 -12 20 -44 -4 -68 -11 -11 -20 -24 -20 -30 0 -5 -4 -10
-10 -10 -5 0 -12 23 -16 50 -7 54 -27 64 -32 17 -2 -15 -8 -27 -14 -27 -6 0
-25 -16 -42 -35 -18 -19 -35 -33 -38 -30 -19 19 -106 -157 -136 -275 -27 -107
-42 -178 -42 -198 0 -11 -5 -24 -11 -27 -11 -8 -8 163 4 182 4 6 10 40 13 75
4 34 12 70 19 78 7 8 16 44 20 78 5 46 10 61 18 53 18 -18 27 -13 27 14 0 14
4 25 9 25 9 0 17 42 27 135 7 68 13 84 23 66 12 -19 35 24 27 52 -7 29 20 77
44 77 12 0 20 7 20 16 0 12 -7 15 -25 12 -27 -6 -30 -1 -16 21 5 8 16 11 25 8
9 -4 16 -2 16 3 0 6 9 10 19 10 11 0 23 9 27 22 3 12 14 29 23 39 9 10 25 41
36 70 11 28 32 65 48 81 15 17 27 36 27 43 0 6 9 20 20 30 11 10 20 26 20 35
0 10 7 23 15 30 18 15 20 51 3 68 -6 6 -9 14 -6 18 10 9 79 26 131 31 84 9 50
21 -43 15 -82 -4 -90 -3 -90 13 0 10 -12 30 -26 44 -14 15 -36 51 -48 81 -27
66 -43 73 -52 24 -4 -20 -13 -49 -20 -63 -8 -14 -14 -45 -14 -68 0 -23 -4 -45
-10 -48 -5 -3 -10 -42 -10 -86 0 -72 -2 -81 -25 -101 -16 -14 -33 -48 -46 -91
-20 -66 -21 -68 -36 -48 -13 20 -13 28 6 88 12 37 21 75 21 86 0 12 4 34 9 51
23 73 34 200 22 257 -9 41 -9 69 0 110 12 59 57 199 69 212 4 4 19 3 33 -4 19
-9 34 -9 49 -2 22 9 21 10 -15 22 -20 7 -37 17 -37 22 0 8 79 13 96 7 4 -2 11
7 15 20 5 13 13 21 17 18 17 -10 54 35 49 60 -2 13 -1 22 3 19 10 -6 70 141
76 188 6 52 -5 70 -45 69 -17 0 -31 4 -31 9 0 5 -9 9 -21 9 -24 0 -20 23 15
75 21 30 22 42 19 127 -3 51 -9 98 -15 103 -7 7 -9 0 -5 -22 7 -38 5 -39 -29
-16 -21 13 -27 14 -34 3 -7 -11 -14 -11 -38 -1 -25 11 -34 9 -68 -9 -21 -12
-46 -28 -55 -36 -8 -8 -34 -14 -57 -14 -60 0 -71 -26 -32 -75 17 -21 30 -45
30 -54 0 -23 40 -57 77 -65 35 -8 63 -43 63 -80 0 -34 -17 -76 -31 -76 -22 0
-99 89 -99 113 0 40 -73 113 -133 133 -28 10 -59 18 -67 19 -50 5 -90 31 -82
54 2 7 -2 17 -9 22 -15 9 -18 7 54 29 48 15 52 52 7 75 -26 14 -30 21 -30 59
0 36 5 47 25 60 17 11 25 26 25 45 0 15 11 45 25 65 14 20 25 40 25 45 0 4 18
24 41 44 36 33 45 36 85 32 36 -3 44 -1 45 13 0 14 2 13 9 -3 5 -11 9 -14 9
-7 1 6 6 12 11 12 12 0 45 -32 53 -51 5 -12 6 -12 6 0 1 11 6 10 22 -5 16 -14
22 -15 28 -5 7 10 13 11 30 2 12 -7 19 -16 16 -21 -3 -5 -1 -19 5 -31 9 -17
18 -20 41 -15 31 6 38 -4 15 -23 -15 -12 -10 -51 6 -51 5 0 7 9 3 19 -3 11 -2
22 3 25 5 3 12 -9 16 -26 4 -21 2 -34 -6 -40 -12 -7 -4 -12 15 -9 4 0 7 -11 8
-26 0 -16 3 -22 6 -16 8 20 -25 163 -49 210 -25 50 -72 95 -183 178 -115 86
-131 95 -199 114 -47 13 -80 15 -142 10z m-176 -999 c20 -13 32 -28 32 -42 0
-12 10 -32 22 -46 21 -21 21 -24 6 -33 -10 -5 -15 -16 -12 -24 7 -18 -7 -20
-23 -4 -12 12 -53 3 -53 -11 0 -14 37 -31 53 -25 14 6 44 -21 34 -31 -3 -3
-21 -5 -39 -4 -18 1 -59 3 -91 3 -53 2 -73 10 -46 19 9 3 8 10 -1 24 -9 14
-11 38 -6 77 6 47 13 61 42 87 41 36 40 35 82 10z m376 -129 c17 -18 16 -51 0
-113 -11 -37 -89 -44 -113 -10 -9 13 -24 33 -34 43 -10 11 -14 25 -10 32 4 7
6 19 5 28 -2 11 10 19 40 26 66 16 93 15 112 -6z m-680 -299 c3 -5 19 -9 36
-10 17 0 46 -6 64 -12 18 -6 78 -11 134 -12 63 -1 102 -6 102 -13 0 -21 -16
-31 -55 -32 -22 -1 -59 -7 -83 -13 -24 -6 -48 -7 -54 -4 -5 4 -26 9 -46 11
-50 7 -82 20 -82 34 0 9 -3 9 -14 0 -11 -9 -15 -7 -20 11 -3 13 -6 29 -6 36 0
14 16 16 24 4z m488 -1021 c-4 -4 -14 -25 -20 -48 -7 -24 -18 -43 -25 -43 -7
0 -6 -4 3 -10 12 -8 12 -12 2 -18 -7 -5 -10 -16 -7 -24 4 -9 2 -19 -4 -23 -6
-3 -11 -22 -11 -41 0 -19 -3 -34 -7 -34 -5 0 -9 -10 -10 -22 -1 -13 -6 -43
-12 -68 -5 -25 -11 -83 -12 -130 -2 -69 -3 -76 -8 -40 -6 43 -7 41 -14 -33 -6
-74 -5 -80 19 -112 14 -18 28 -50 31 -72 3 -21 10 -41 16 -44 6 -4 6 -9 0 -12
-5 -3 -34 30 -63 74 -29 44 -60 84 -69 88 -11 7 -12 13 -5 23 12 14 27 112 49
319 10 91 22 152 35 180 11 24 18 36 15 25 -5 -17 -4 -18 17 -4 31 20 37 42 9
33 -25 -8 -27 3 -4 25 10 9 32 16 50 16 18 0 29 -2 25 -5z"/>
<path d="M11184 5203 c3 -49 7 -142 7 -208 1 -66 4 -126 7 -133 6 -16 32 32
32 59 0 11 4 27 9 37 12 23 39 142 38 167 0 11 3 46 7 77 7 56 7 57 -23 72
-16 9 -42 16 -57 16 l-27 0 7 -87z"/>
<path d="M11752 5276 c-45 -17 -94 -62 -90 -83 2 -10 18 -24 36 -32 23 -11 32
-21 32 -38 0 -13 -4 -23 -10 -23 -5 0 -10 -6 -10 -14 0 -8 -13 -20 -29 -27
-35 -16 -31 -40 9 -58 40 -17 53 -7 45 35 -7 40 0 43 27 9 25 -32 37 -31 83 5
21 17 55 35 76 42 79 23 32 73 -81 85 -33 3 -60 10 -60 15 0 13 46 28 86 28
22 0 34 5 34 14 0 16 -21 26 -55 26 -12 0 -28 7 -35 15 -14 17 -13 17 -58 1z"/>
<path d="M4270 5052 c0 -17 48 -50 98 -66 91 -29 297 -47 417 -36 61 5 125 12
143 15 56 10 33 35 -33 35 -18 0 -35 3 -37 8 -1 4 -17 17 -35 30 -28 19 -45
22 -132 22 -64 0 -117 -6 -146 -16 -25 -8 -55 -12 -67 -8 -13 4 -24 1 -29 -7
-7 -11 -11 -10 -23 6 -11 15 -29 20 -85 23 -45 3 -71 0 -71 -6z"/>
<path d="M0 4665 c0 -130 1 -135 45 -125 42 9 45 8 46 -13 0 -12 3 -16 6 -9 2
6 16 12 30 12 14 0 34 10 44 21 l19 22 6 -31 c5 -26 11 -31 48 -36 55 -8 73
-4 91 20 17 22 20 93 4 127 -8 18 -18 23 -45 23 -22 0 -34 -5 -34 -13 0 -18
-48 -36 -76 -29 -13 4 -24 1 -26 -5 -3 -9 -9 -9 -25 0 -12 6 -40 11 -63 11
-50 0 -61 20 -31 60 11 16 21 43 21 60 0 27 -3 30 -30 30 l-30 0 0 -125z"/>
<path d="M11570 4716 c0 -19 5 -38 11 -41 6 -4 8 -13 5 -20 -2 -7 4 -15 15
-18 10 -3 19 -12 19 -21 0 -18 11 -21 26 -6 6 6 27 11 47 12 20 1 37 5 37 10
0 12 58 10 66 -3 4 -8 9 -8 17 0 16 16 60 14 50 -1 -7 -13 -9 -18 -11 -50 -2
-13 -11 -18 -34 -18 -80 1 -134 -22 -123 -52 4 -9 -1 -18 -9 -21 -9 -4 -16 -2
-16 2 0 5 6 12 13 14 7 3 5 6 -5 6 -11 1 -18 -6 -18 -16 0 -9 -7 -24 -16 -34
-11 -12 -14 -27 -10 -45 6 -24 8 -25 25 -10 10 9 24 16 32 16 8 0 24 11 36 24
12 13 35 30 50 37 49 25 97 61 122 92 23 28 23 31 8 55 -8 15 -28 30 -44 35
-22 7 -149 15 -255 17 -14 0 -18 8 -18 35 0 19 -4 35 -10 35 -5 0 -10 -15 -10
-34z"/>
<path d="M12756 4171 c-28 -6 -43 -29 -40 -61 1 -8 2 -21 3 -27 0 -7 8 -13 16
-13 26 0 16 -35 -20 -70 -19 -19 -35 -40 -35 -46 0 -12 -35 -15 -77 -8 -17 3
-23 11 -23 29 0 24 -19 33 -55 25 -5 -1 -18 -2 -27 -3 -10 -1 -18 -7 -18 -13
0 -7 -15 -16 -32 -20 -18 -3 -40 -15 -48 -24 -19 -22 -126 -46 -143 -32 -7 5
-24 11 -38 14 -26 5 -27 4 -16 -26 5 -17 14 -36 18 -42 27 -34 69 -199 74
-286 5 -98 23 -208 34 -208 3 0 7 -33 8 -73 2 -39 7 -103 13 -142 10 -75 21
-273 25 -475 3 -147 14 -272 25 -290 5 -8 15 8 30 46 32 87 39 139 33 244 -5
93 -5 96 21 121 l26 27 -15 58 c-21 80 -19 90 15 115 41 31 75 83 112 170 43
103 68 212 118 522 17 103 40 233 51 290 12 56 25 120 29 141 6 28 4 43 -5 53
-14 14 -15 14 -59 4z"/>
<path d="M2560 3801 c-5 -11 -10 -33 -10 -49 0 -18 -10 -37 -25 -52 -25 -23
-34 -60 -15 -60 6 0 10 -6 10 -14 0 -26 17 -26 54 -1 46 31 61 31 98 0 16 -14
36 -25 43 -25 34 0 -25 81 -84 116 -31 19 -51 56 -44 84 7 26 -13 26 -27 1z"/>
<path d="M11966 3650 c-9 -22 -21 -62 -27 -87 -15 -72 -38 -388 -49 -678 -8
-231 -21 -406 -36 -472 -8 -42 12 -24 28 25 29 83 37 143 49 352 6 113 17 243
25 290 7 47 14 155 14 240 1 85 5 202 10 260 4 58 7 106 5 108 -1 2 -10 -15
-19 -38z"/>
<path d="M6920 3463 c0 -7 9 -35 20 -63 11 -28 18 -55 15 -60 -3 -5 0 -21 6
-37 6 -15 19 -62 28 -103 14 -67 16 -97 10 -190 -3 -43 53 -140 81 -140 13 0
13 40 -1 79 -7 20 -8 36 -1 44 24 31 22 67 -11 154 -19 49 -40 108 -47 133 -7
25 -22 59 -32 76 -10 17 -18 38 -18 45 -1 17 -50 78 -50 62z"/>
<path d="M3140 3452 c-299 -1 -548 -6 -553 -11 -5 -5 -2 -22 7 -39 40 -78 -4
-223 -87 -283 -22 -16 -46 -29 -52 -29 -7 0 -15 -7 -18 -15 -4 -8 -22 -21 -42
-29 l-35 -15 0 -323 c0 -178 4 -329 9 -336 6 -10 70 -13 301 -12 162 0 304 3
316 6 27 7 33 20 43 105 7 51 15 72 35 92 14 14 26 36 26 47 0 12 6 33 14 48
18 35 14 145 -7 193 -16 37 -46 59 -48 36 0 -7 -4 -3 -9 8 -10 26 0 36 52 46
186 39 188 38 188 -111 0 -69 4 -110 12 -118 8 -8 67 -12 201 -12 l189 0 47
33 c25 17 55 37 66 43 11 6 26 23 33 37 14 29 57 74 120 127 23 19 65 67 94
105 l53 70 3 162 c3 130 1 164 -9 168 -22 7 -365 10 -949 7z"/>
<path d="M6675 3274 c-16 -115 -20 -132 -30 -113 -16 30 -22 12 -31 -101 -5
-74 -4 -94 7 -101 12 -8 12 -10 -1 -18 -8 -6 -11 -13 -7 -17 4 -4 13 -2 19 4
7 7 20 12 30 12 22 0 22 10 3 57 -19 46 -19 59 1 42 21 -17 36 5 31 44 -3 26
-1 28 27 25 l31 -3 -3 60 c-1 33 -6 71 -11 85 -5 14 -12 49 -16 78 -14 123
-27 109 -50 -54z"/>
<path d="M7448 3313 c27 -61 88 -187 114 -238 27 -51 99 -158 119 -175 18 -16
72 -106 84 -141 22 -61 73 -146 92 -153 9 -4 20 -3 25 2 15 15 20 83 11 127
-9 38 -10 40 -50 41 -44 1 -83 22 -63 34 7 4 13 73 16 184 5 170 4 178 -14
183 -11 3 -22 16 -25 32 -6 31 -61 103 -85 113 -9 4 -65 7 -124 7 -99 1 -107
0 -100 -16z"/>
<path d="M7400 3207 c0 -8 7 -20 15 -27 9 -8 15 -30 15 -57 0 -36 4 -46 20
-50 11 -3 21 -15 22 -27 0 -11 2 -27 2 -34 1 -8 10 -20 20 -28 19 -13 19 -14
1 -14 -17 0 -17 -1 0 -20 16 -18 16 -20 1 -26 -9 -3 -16 -15 -16 -26 0 -14 -5
-18 -15 -14 -23 9 -18 -22 8 -47 22 -21 39 -50 41 -71 1 -5 7 -11 15 -14 10
-3 12 1 8 17 -4 16 -1 21 14 21 12 0 19 -7 19 -20 0 -11 7 -20 15 -20 8 0 15
5 15 10 0 6 9 10 20 10 22 0 28 35 8 44 -7 3 -4 5 7 3 11 -1 21 -11 23 -21 4
-21 26 -46 39 -46 4 0 14 4 22 9 11 7 10 17 -9 57 -21 44 -113 164 -132 172
-5 2 -5 9 -2 14 4 7 2 8 -4 4 -17 -10 -49 10 -55 34 -4 17 -3 19 9 9 11 -9 14
-8 14 5 0 9 -4 16 -9 16 -10 0 -71 85 -71 99 0 4 -13 17 -30 29 -22 17 -30 19
-30 9z"/>
<path d="M2214 3048 c-6 -18 -9 -49 -7 -68 6 -49 3 -418 -3 -513 -5 -66 -3
-82 12 -98 20 -22 53 -25 78 -6 17 13 18 32 14 314 -3 244 -7 304 -18 319 -8
9 -19 31 -25 48 -14 43 -39 45 -51 4z"/>
<path d="M1930 3040 c-14 -35 -41 -39 -61 -11 -18 25 -72 18 -67 -8 2 -9 11
-15 21 -13 9 2 17 -2 17 -9 0 -7 -9 -9 -24 -5 -15 4 -28 0 -36 -9 -9 -11 -17
-12 -31 -5 -17 9 -18 7 -12 -20 10 -53 -40 -89 -77 -55 -15 14 -19 14 -29 1
-15 -18 -5 -40 16 -32 19 8 53 -11 53 -29 0 -9 10 -15 24 -15 12 0 37 -5 54
-11 26 -9 35 -8 47 5 9 9 15 24 14 33 -5 51 14 57 51 18 16 -17 30 -23 44 -19
12 3 43 0 70 -6 42 -9 50 -8 62 7 22 29 17 40 -16 35 -27 -4 -31 -1 -36 27 -4
17 -13 36 -20 42 -8 6 -14 26 -14 44 0 68 -28 88 -50 35z"/>
<path d="M7973 2754 c-2 -6 -3 -42 -1 -80 l3 -69 102 -7 c56 -3 110 -11 120
-17 12 -6 63 -8 131 -4 l112 6 0 37 c0 21 -3 58 -6 83 -6 43 -9 47 -38 52 -66
11 -419 10 -423 -1z"/>
<path d="M12647 2551 c-26 -54 -59 -111 -73 -126 -35 -38 -28 -60 19 -59 20 1
44 7 53 15 22 18 64 115 64 148 0 14 4 41 10 60 7 25 6 37 -5 47 -7 8 -15 14
-17 14 -2 0 -25 -45 -51 -99z"/>
<path d="M4887 2584 c-3 -4 -2 -16 4 -26 7 -12 8 -35 4 -57 -16 -78 -10 -174
13 -239 13 -35 21 -70 18 -79 -5 -11 0 -13 22 -9 15 2 49 8 76 11 27 4 61 11
75 16 20 8 23 12 11 20 -13 8 -13 10 0 19 12 8 11 10 -6 10 -12 0 -31 9 -44
20 -13 11 -30 20 -39 20 -9 0 -27 9 -41 19 -21 17 -26 31 -33 108 -5 48 -10
103 -11 121 0 18 -6 32 -13 32 -7 0 -13 5 -13 10 0 11 -13 13 -23 4z"/>
<path d="M5347 2487 c-3 -8 -1 -20 4 -28 5 -8 6 -55 2 -105 -4 -66 -2 -93 6
-99 17 -10 61 3 61 19 0 20 40 62 48 50 4 -6 15 -13 25 -17 23 -9 22 -27 -3
-27 -11 0 -20 7 -20 15 0 19 -14 19 -29 1 -10 -12 -4 -15 30 -21 46 -8 72 10
44 31 -8 6 -15 18 -15 27 0 10 -6 14 -14 11 -20 -8 -30 14 -16 31 9 10 9 19 2
28 -5 6 -13 31 -17 55 -7 45 -25 58 -25 17 0 -14 -4 -25 -10 -25 -5 0 -10 11
-10 25 0 14 -4 25 -10 25 -5 0 -10 -11 -10 -25 0 -14 -4 -25 -10 -25 -5 0 -10
11 -10 25 0 27 -14 34 -23 12z"/>
<path d="M12690 1545 c-10 -12 -16 -13 -26 -4 -18 15 -45 -6 -37 -28 5 -13 -3
-14 -53 -10 -32 3 -60 6 -61 6 -2 1 -4 9 -4 19 -1 19 -12 -22 -30 -121 l-12
-69 32 -25 c22 -17 29 -29 22 -37 -5 -6 -11 -27 -13 -46 -2 -29 -7 -35 -24
-33 -15 2 -24 -5 -29 -20 -12 -34 -11 -40 7 -43 9 -1 24 -6 33 -11 14 -8 10
-13 -24 -26 -30 -12 -41 -23 -41 -38 0 -21 3 -21 78 -14 93 9 108 15 115 55 5
21 12 30 27 30 11 0 20 4 20 9 0 15 -42 41 -54 34 -6 -3 -5 0 2 8 17 19 15 34
-3 19 -13 -11 -14 -10 -8 6 7 19 6 19 -21 0 -16 -10 -26 -13 -22 -8 3 6 2 13
-4 17 -6 4 -8 10 -5 15 3 5 1 11 -5 15 -14 9 -2 25 18 25 9 0 44 -13 76 -30
l60 -29 -2 -48 c-3 -53 7 -76 26 -64 10 6 10 18 3 51 -5 24 -8 47 -5 51 2 4
52 -13 111 -36 60 -24 120 -47 136 -51 l27 -6 0 105 0 105 -31 6 c-17 3 -47 6
-66 6 -19 0 -41 7 -49 15 -9 8 -26 15 -40 15 -19 0 -24 5 -24 25 0 14 4 25 9
25 17 0 -1 38 -20 43 -13 4 -23 -3 -32 -21 -19 -41 -40 -34 -49 17 -5 30 -3
54 7 77 15 35 7 45 -15 19z"/>
<path d="M10790 1089 c0 -7 -21 -10 -60 -7 -60 3 -78 -5 -39 -17 12 -4 150 -8
308 -10 157 -1 316 -6 354 -10 43 -5 67 -4 67 2 0 11 -43 17 -290 38 -200 18
-340 19 -340 4z"/>
<path d="M7925 1073 c-80 -5 -109 -19 -39 -21 26 0 74 -5 108 -11 68 -12 731
-68 924 -78 119 -6 122 -6 122 15 0 28 -40 39 -175 46 -60 3 -153 11 -205 17
-139 17 -105 15 -580 33 -47 1 -116 1 -155 -1z"/>
<path d="M27 126 c-25 -9 -27 -14 -27 -68 l0 -58 510 0 c281 0 510 4 510 8 0
16 -72 43 -146 54 -65 10 -80 9 -134 -8 -33 -10 -60 -25 -60 -31 0 -7 -9 -13
-20 -13 -11 0 -20 7 -20 15 0 9 -10 15 -22 16 -216 9 -290 16 -298 28 -4 8
-16 15 -27 16 -10 1 -28 7 -40 13 -12 7 -29 12 -38 12 -9 0 -23 6 -31 14 -11
12 -20 12 -44 3 -21 -8 -38 -8 -57 -1 -19 7 -37 7 -56 0z"/>
</g>
</svg>
